<?xml version="1.0" encoding="UTF-8" standalone="no"?>
<svg
   xmlns:dc="http://purl.org/dc/elements/1.1/"
   xmlns:cc="http://creativecommons.org/ns#"
   xmlns:rdf="http://www.w3.org/1999/02/22-rdf-syntax-ns#"
   xmlns:svg="http://www.w3.org/2000/svg"
   xmlns="http://www.w3.org/2000/svg"
   xmlns:sodipodi="http://sodipodi.sourceforge.net/DTD/sodipodi-0.dtd"
   xmlns:inkscape="http://www.inkscape.org/namespaces/inkscape"
   inkscape:export-ydpi="96"
   inkscape:export-xdpi="96"
   inkscape:export-filename="C:\Users\agu03\OneDrive\Documentos\ctc\Taller us y as\Oligatorio Taller UsyAs Agustina Bagnasco - Yolaus Godoy\img\favicon.png"
   width="45mm"
   height="60mm"
   viewBox="0 0 45 60"
   version="1.1"
   id="svg872"
   inkscape:version="1.0 (4035a4fb49, 2020-05-01)"
   sodipodi:docname="favicon.svg">
  <defs
     id="defs866" />
  <sodipodi:namedview
     id="base"
     pagecolor="#ffffff"
     bordercolor="#666666"
     borderopacity="1.0"
     inkscape:pageopacity="0.0"
     inkscape:pageshadow="2"
     inkscape:zoom="1.4"
     inkscape:cx="122.96433"
     inkscape:cy="187.6378"
     inkscape:document-units="mm"
     inkscape:current-layer="layer1"
     inkscape:document-rotation="0"
     showgrid="false"
     inkscape:window-width="1300"
     inkscape:window-height="728"
     inkscape:window-x="50"
     inkscape:window-y="0"
     inkscape:window-maximized="0" />
  <metadata
     id="metadata869">
    <rdf:RDF>
      <cc:Work
         rdf:about="">
        <dc:format>image/svg+xml</dc:format>
        <dc:type
           rdf:resource="http://purl.org/dc/dcmitype/StillImage" />
        <dc:title />
      </cc:Work>
    </rdf:RDF>
  </metadata>
  <g
     inkscape:label="Capa 1"
     inkscape:groupmode="layer"
     id="layer1">
    <path
       sodipodi:nodetypes="sscssscsssssssssssscssscsssccccccccsccsssssssssssssscssscccc"
       id="path954"
       d="m 22.698425,58.731167 c -0.181441,-0.161262 -0.329896,-1.970061 -0.329896,-4.019625 v -3.72646 l -2.780611,-3.915826 c -1.529344,-2.153724 -2.648111,-4.033622 -2.486141,-4.177539 0.472024,-0.419434 1.448004,0.510702 3.039997,2.897232 0.816481,1.223948 1.603996,2.229301 1.750025,2.234103 0.146043,0.006 0.1162,-1.535405 -0.06639,-3.422687 -0.295013,-3.050476 -0.612893,-3.870629 -2.863404,-7.3878 -1.392353,-2.176027 -2.53154,-4.193455 -2.53154,-4.48321 0,-1.160686 0.888901,-0.392797 2.50513,2.164166 0.935526,1.480031 1.767193,2.397011 1.848136,2.037741 0.08091,-0.359259 -0.190408,-3.083128 -0.603025,-6.053007 -0.412616,-2.969905 -0.630466,-5.57198 -0.484112,-5.782388 0.612664,-0.880883 1.090798,0.258171 1.42043,3.383925 0.375296,3.558716 0.958405,3.836262 2.247908,1.06996 0.624691,-1.340076 1.477713,-1.75747 1.477713,-0.723066 0,0.319812 -0.676801,1.691842 -1.504015,3.048962 -1.491517,2.446948 -1.499741,2.497773 -0.989664,6.112452 0.282888,2.004705 0.519297,3.946916 0.525347,4.316017 0.01549,0.941517 1.637271,-1.003468 3.015232,-3.616 1.019878,-1.93364 1.922104,-2.703485 1.922104,-1.640079 0,0.24667 -1.015461,2.245109 -2.256574,4.440991 l -2.256586,3.992495 0.348538,6.77138 c 0.326354,6.340589 0.161719,7.464914 -0.948658,6.478263 z M 1.5854955,28.025365 V 1.8631794 H 22.368529 43.151558 V 28.025365 54.187577 h -7.504984 -7.504972 l 1.760877,-1.564696 c 3.921144,-3.484255 6.806047,-10.865068 6.81277,-17.429917 l 0.0036,-3.38527 -1.716018,0.637141 c -0.94382,0.350387 -1.834523,0.637092 -1.97934,0.637092 -0.144806,0 -0.26331,-1.194982 -0.26331,-2.655531 0,-2.711336 -0.922921,-11.062439 -1.255193,-11.357715 -0.100954,-0.08979 -1.061017,0.45427 -2.133317,1.20893 -1.072313,0.754648 -2.065457,1.372102 -2.206986,1.372102 -0.141527,0 -1.089814,-1.335585 -2.107291,-2.967971 -2.814548,-4.515525 -6.075551,-8.9039517 -6.616467,-8.9039517 -0.546773,0 -1.879033,3.7734927 -3.708118,10.5029297 -0.682733,2.511841 -1.316367,4.633633 -1.408078,4.715129 -0.09171,0.08151 -0.933461,-0.313306 -1.870547,-0.877341 -0.937134,-0.564036 -2.2185823,-1.169606 -2.8477163,-1.345705 -1.3216836,-0.369918 -1.3604086,-0.839818 0.694569,8.427845 0.655349,2.955584 1.1915603,5.47411 1.1915603,5.596756 0,0.122574 -0.5576373,-0.0036 -1.2391803,-0.278711 -0.681544,-0.275926 -1.374611,-0.381369 -1.540148,-0.234271 -0.165536,0.147014 0.08007,1.811631 0.54567,3.69896 1.150818,4.664459 4.0483383,10.027436 6.6646143,12.335472 l 2.118311,1.868723 H 9.3138567 1.5857044 Z"
       style="fill:#67923d;fill-opacity:1;stroke-width:0.466452" />
  </g>
</svg>
