<?xml version="1.0" encoding="UTF-8" standalone="no"?>
<svg
   xmlns:dc="http://purl.org/dc/elements/1.1/"
   xmlns:cc="http://creativecommons.org/ns#"
   xmlns:rdf="http://www.w3.org/1999/02/22-rdf-syntax-ns#"
   xmlns:svg="http://www.w3.org/2000/svg"
   xmlns="http://www.w3.org/2000/svg"
   xmlns:sodipodi="http://sodipodi.sourceforge.net/DTD/sodipodi-0.dtd"
   xmlns:inkscape="http://www.inkscape.org/namespaces/inkscape"
   id="svg8"
   version="1.1"
   viewBox="0 0 229 83"
   height="83mm"
   width="229mm"
   inkscape:version="1.0 (4035a4fb49, 2020-05-01)"
   sodipodi:docname="logo.svg">
  <defs
     id="defs2" />
  <sodipodi:namedview
     id="base"
     pagecolor="#ffffff"
     bordercolor="#666666"
     borderopacity="1.0"
     inkscape:pageopacity="0.0"
     inkscape:pageshadow="2"
     inkscape:zoom="0.45501133"
     inkscape:cx="370.76799"
     inkscape:cy="145.66903"
     inkscape:document-units="mm"
     inkscape:current-layer="layer1"
     inkscape:document-rotation="0"
     showgrid="false"
     inkscape:window-width="1366"
     inkscape:window-height="705"
     inkscape:window-x="-8"
     inkscape:window-y="-8"
     inkscape:window-maximized="1" />
  <metadata
     id="metadata5">
    <rdf:RDF>
      <cc:Work
         rdf:about="">
        <dc:format>image/svg+xml</dc:format>
        <dc:type
           rdf:resource="http://purl.org/dc/dcmitype/StillImage" />
        <dc:title></dc:title>
      </cc:Work>
    </rdf:RDF>
  </metadata>
  <g
     inkscape:label="Capa 1"
     inkscape:groupmode="layer"
     id="layer1">
    <path
       style="fill:#67923d;fill-opacity:1;stroke-width:0.388578"
       d="M 21.692821,51.008246 C 21.54168,50.873905 21.418005,49.36709 21.418005,47.659703 v -3.104338 l -2.316393,-3.262079 c -1.274021,-1.794161 -2.206002,-3.360204 -2.071073,-3.480094 0.393218,-0.349411 1.206252,0.425437 2.532468,2.413538 0.680168,1.019606 1.336205,1.85712 1.45786,1.861115 0.121655,0.0046 0.09681,-1.279067 -0.05526,-2.851263 -0.245766,-2.5412 -0.510574,-3.22443 -2.385363,-6.154417 -1.159895,-1.812731 -2.1089,-3.493357 -2.1089,-3.73474 0,-0.966904 0.740498,-0.327217 2.086904,1.80286 0.77934,1.232949 1.472157,1.99683 1.539592,1.697547 0.06743,-0.299284 -0.158623,-2.568407 -0.502353,-5.042466 -0.343731,-2.474074 -0.525213,-4.64174 -0.403295,-4.817015 0.510387,-0.733819 0.90869,0.21507 1.183292,2.818983 0.312637,2.964582 0.798399,3.1958 1.872624,0.891327 0.520393,-1.116347 1.231006,-1.46406 1.231006,-0.602348 0,0.266417 -0.563812,1.409383 -1.252919,2.539935 -1.242507,2.038428 -1.249358,2.080766 -0.824443,5.091976 0.235661,1.670029 0.432601,3.287989 0.437642,3.595462 0.01293,0.784333 1.363931,-0.835939 2.511841,-3.012303 0.849613,-1.610818 1.601211,-2.252141 1.601211,-1.366273 0,0.205491 -0.845931,1.870292 -1.879844,3.699573 l -1.879847,3.325948 0.290348,5.640894 c 0.271872,5.28203 0.13472,6.218657 -0.790282,5.396721 z M 4.1046905,25.42877 V 3.6343471 H 21.418005 38.73132 V 25.42877 47.223209 h -6.252032 -6.252026 l 1.466906,-1.303469 c 3.266507,-2.902563 5.669782,-9.051148 5.67538,-14.520005 l 0.0029,-2.820093 -1.429534,0.530765 c -0.786248,0.291896 -1.528245,0.530733 -1.648888,0.530733 -0.12063,0 -0.219348,-0.995484 -0.219348,-2.212192 0,-2.258682 -0.768841,-9.215568 -1.045645,-9.461547 -0.08414,-0.0748 -0.883873,0.378425 -1.777162,1.007099 -0.893289,0.628661 -1.720627,1.143029 -1.838529,1.143029 -0.1179,0 -0.907864,-1.112614 -1.755477,-2.47247 -2.344656,-3.761656 -5.061241,-7.417442 -5.511845,-7.417442 -0.455497,0 -1.565339,3.143515 -3.089059,8.749475 -0.568742,2.092488 -1.096592,3.860043 -1.172992,3.927939 -0.07641,0.06786 -0.777621,-0.261002 -1.558261,-0.730874 -0.780684,-0.469871 -1.848196,-0.974338 -2.3722894,-1.121034 -1.1010317,-0.308168 -1.1332933,-0.69961 0.5786024,7.020819 0.545946,2.462151 0.992631,4.560208 0.992631,4.662375 0,0.102111 -0.464533,-0.0031 -1.0323,-0.232175 -0.5677611,-0.22986 -1.1451182,-0.3177 -1.283014,-0.195158 -0.1378989,0.122462 0.066652,1.509176 0.4545647,3.08142 0.9586953,3.885724 3.3724683,8.353359 5.5519653,10.276063 l 1.764659,1.556742 H 10.542701 4.1047653 Z"
       id="path954"
       sodipodi:nodetypes="sscssscsssssssssssscssscsssccccccccsccsssssssssssssscssscccc" />
    <text
       xml:space="preserve"
       style="font-style:normal;font-weight:normal;font-size:27.6662px;line-height:1.25;font-family:sans-serif;fill:#67923d;fill-opacity:1;stroke:none;stroke-width:1.72913"
       x="4.2144318"
       y="77.714439"
       id="text962"
       transform="scale(1.0073866,0.99266757)"><tspan
         sodipodi:role="line"
         id="tspan960"
         x="4.2144318"
         y="77.714439"
         style="font-style:normal;font-variant:normal;font-weight:normal;font-stretch:normal;font-size:27.6662px;font-family:'AR BONNIE';-inkscape-font-specification:'AR BONNIE';fill:#67923d;fill-opacity:1;stroke-width:1.72913">Reserva Natural Colombia</tspan></text>
    <text
       id="text958-9"
       y="43.312202"
       x="40.379921"
       style="font-style:normal;font-weight:normal;font-size:53.8862px;line-height:1.25;font-family:sans-serif;fill:#000000;fill-opacity:1;stroke:none;stroke-width:1.34716"
       xml:space="preserve"><tspan
         style="font-style:normal;font-variant:normal;font-weight:normal;font-stretch:normal;font-family:'Ink Free';-inkscape-font-specification:'Ink Free';fill:#000000;fill-opacity:1;stroke-width:1.34716"
         y="43.312202"
         x="40.379921"
         id="tspan956-0"
         sodipodi:role="line">Quetzal</tspan></text>
    <text
       xml:space="preserve"
       style="font-style:normal;font-weight:normal;font-size:53.8862px;line-height:1.25;font-family:sans-serif;fill:#67923d;fill-opacity:1;stroke:none;stroke-width:1.34716"
       x="42.382172"
       y="43.505062"
       id="text958"><tspan
         sodipodi:role="line"
         id="tspan956"
         x="42.382172"
         y="43.505062"
         style="font-style:normal;font-variant:normal;font-weight:normal;font-stretch:normal;font-family:'Ink Free';-inkscape-font-specification:'Ink Free';fill:#67923d;fill-opacity:1;stroke-width:1.34716">Quetzal</tspan></text>
  </g>
</svg>
