<?xml version="1.0" encoding="UTF-8" standalone="no"?>
<svg
   xmlns:dc="http://purl.org/dc/elements/1.1/"
   xmlns:cc="http://creativecommons.org/ns#"
   xmlns:rdf="http://www.w3.org/1999/02/22-rdf-syntax-ns#"
   xmlns:svg="http://www.w3.org/2000/svg"
   xmlns="http://www.w3.org/2000/svg"
   xmlns:sodipodi="http://sodipodi.sourceforge.net/DTD/sodipodi-0.dtd"
   xmlns:inkscape="http://www.inkscape.org/namespaces/inkscape"
   sodipodi:docname="mision.svg"
   inkscape:version="1.0 (4035a4fb49, 2020-05-01)"
   id="svg8"
   version="1.1"
   viewBox="0 0 100 100"
   height="100mm"
   width="100mm">
  <defs
     id="defs2" />
  <sodipodi:namedview
     inkscape:window-maximized="1"
     inkscape:window-y="-8"
     inkscape:window-x="-8"
     inkscape:window-height="705"
     inkscape:window-width="1366"
     showgrid="false"
     inkscape:document-rotation="0"
     inkscape:current-layer="layer1"
     inkscape:document-units="mm"
     inkscape:cy="283.37282"
     inkscape:cx="130.1058"
     inkscape:zoom="0.67114695"
     inkscape:pageshadow="2"
     inkscape:pageopacity="0.0"
     borderopacity="1.0"
     bordercolor="#666666"
     pagecolor="#ffffff"
     id="base" />
  <metadata
     id="metadata5">
    <rdf:RDF>
      <cc:Work
         rdf:about="">
        <dc:format>image/svg+xml</dc:format>
        <dc:type
           rdf:resource="http://purl.org/dc/dcmitype/StillImage" />
        <dc:title></dc:title>
      </cc:Work>
    </rdf:RDF>
  </metadata>
  <g
     id="layer1"
     inkscape:groupmode="layer"
     inkscape:label="Capa 1">
    <path
       id="path847"
       d="m 5.4515016,21.94898 8.7153194,35.000339 0.16279,-0.04054 C 10.549194,41.17233 21.336017,23.864789 35.461993,17.495278 41.61842,14.719283 47.460725,14.594872 54.040781,14.344966 l 0.08107,0.32558 c -3.171986,2.901978 -1.790994,6.693502 -0.904735,10.252681 -5.521354,0.103186 -10.701315,0.422763 -15.587866,3.358551 -3.495327,2.099942 -6.347701,4.719144 -8.713847,8.052375 -8.938832,12.592251 -3.832577,31.131773 9.798895,37.963303 11.474531,5.75059 25.262746,2.195181 32.959055,-7.887012 2.749201,-3.601497 4.236752,-7.933081 4.894414,-12.37871 0.629037,-4.252987 -0.169609,-8.908591 -1.725836,-12.882481 -0.67598,-1.725989 -1.814319,-3.218932 -2.55246,-4.896764 2.026925,-0.504718 4.555315,-0.763999 6.205845,-2.155418 1.131667,-0.954143 1.797232,-2.406841 2.547635,-3.654864 10.717974,15.635283 7.102274,37.421289 -7.620794,49.240054 -2.913133,2.338417 -6.394945,4.566197 -10.007986,5.632348 l 0.04054,0.162794 33.535201,-8.35049 -14.755234,-59.256369 -0.16279,0.04054 c -0.762475,3.191511 -3.660668,6.643914 -5.470502,9.395172 -0.5689,0.864666 -1.094706,2.289133 -2.040533,2.79331 -2.881497,1.535776 -7.192573,0.786012 -9.892992,2.622649 -1.013926,0.689706 -1.64612,2.368697 -2.265588,3.398963 -1.554362,2.585123 -3.127832,5.155978 -4.711313,7.722755 -1.427285,2.313696 -2.84675,4.630966 -4.253948,6.957275 -0.843191,1.394053 -2.049517,2.559385 -3.742087,1.604678 -2.04974,-1.156053 -1.448593,-2.867415 -0.446053,-4.538007 l 3.912184,-6.506514 4.645729,-7.726485 c 0.653581,-1.087004 1.754508,-2.36941 2.033257,-3.618245 0.190248,-0.852326 -0.315964,-1.982649 -0.521766,-2.809142 -0.571684,-2.295858 -1.816792,-5.138242 -1.812971,-7.501316 0.0019,-1.198912 1.227624,-2.575282 1.823252,-3.56595 1.689346,-2.809531 3.218763,-6.5404833 5.582587,-8.8242076 L 59.498469,8.4909224 47.451887,11.490602 5.4514831,21.948985 M 66.335776,6.788387 l 0.04054,0.1627911 c 2.10343,0.5051518 2.308078,2.3385939 2.76295,4.1528219 0.501358,2.001842 1.161419,3.969913 1.662635,5.982775 2.014385,-0.501595 4.058052,-0.837736 6.063845,-1.337055 1.749561,-0.435527 3.19766,-1.097142 4.719689,0.207858 l 0.16279,-0.04054 L 78.707994,3.7076218 66.335795,6.7883824 m 0.987546,31.7380196 c 2.438395,3.90204 4.118621,7.960706 4.056051,12.648009 -0.13725,10.269544 -8.280597,19.777042 -18.794515,20.505262 -3.284022,0.227512 -6.601822,-0.156888 -9.675562,-1.364305 -2.462268,-0.967238 -4.66406,-2.386069 -6.598424,-4.184766 -7.030479,-6.537868 -8.574259,-17.896562 -3.529554,-26.084593 3.105057,-5.039835 8.576076,-8.594532 14.371704,-9.620846 1.498518,-0.265435 3.104214,-0.272637 4.617769,-0.201402 0.530598,0.02503 1.450296,0.0095 1.278299,0.795592 -0.196389,0.897771 -0.998951,1.83014 -1.467673,2.609695 -1.071574,1.782183 -2.126594,4.575069 -3.709348,5.932512 -1.011763,0.867751 -2.70213,1.129268 -3.844385,1.91869 -2.977037,2.057488 -4.80715,5.520895 -5.010976,9.108387 -0.408198,7.188067 6.576632,12.828782 13.507366,11.820978 3.141706,-0.45676 5.9849,-2.59278 7.692597,-5.200176 1.249746,-1.908134 1.979903,-4.210917 1.925526,-6.501093 -0.02239,-0.946671 -0.520097,-2.119726 -0.315838,-3.033293 0.234457,-1.0504 1.118174,-2.096332 1.666488,-3.00825 1.212532,-2.016622 2.290488,-4.359849 3.830475,-6.140401 M 15.626128,62.809831 23.733399,95.368276 55.315087,87.504224 55.27455,87.34143 C 43.413734,89.758387 29.560722,83.499812 22.175894,74.318232 20.195816,71.856316 18.607863,69.21429 17.191414,66.396441 16.620809,65.261245 16.396936,63.821004 15.626128,62.809831 Z"
       style="fill:#2b1100;stroke:none;stroke-width:0.167763" />
    <path
       sodipodi:nodetypes="cccccccccccccccccccccsc"
       id="path877"
       d="m 15.747195,180.94691 c 9.121007,-6.00822 17.284642,-10.7825 28.121732,-13.01933 -3.64281,3.84273 -5.98108,10.02191 -3.07777,15.10199 4.12607,7.22042 13.94888,6.20646 17.13863,-1.04112 -2.47888,1.15715 -4.92183,3.13037 -7.81159,2.26171 -5.86286,-1.76144 -6.7138,-9.2786 -2.03466,-12.77925 7.50432,-5.61402 15.93877,5.53916 11.81059,12.60011 -8.6844,14.85347 -30.61644,-2.04956 -42.584614,-2.08257 v 0.52077 c 10.899564,3.54645 21.959944,10.56127 33.850214,9.28329 11.82259,-1.27017 16.04918,-12.96246 9.8947,-22.30261 8.13655,2.41133 10.93518,10.54309 10.93623,18.22703 5.95711,-1.75289 13.52707,-7.92797 16.14394,-13.54007 -9.02551,-0.0748 -16.17729,-7.09167 -24.47633,-9.89265 -14.9873,-5.05849 -40.713385,1.22813 -47.911072,16.6627 M 60.533637,169.1427 c 0.40257,0 0.0833,0.2593 -0.17341,0.17361 l 0.17341,-0.17361 m -4.16616,11.80421 v -0.52078 c -5.96235,2.15584 -10.63471,-4.04041 -5.20775,-8.33237 -5.98471,-0.79792 -5.82274,9.98968 0.52079,10.3363 1.75186,0.0957 3.21054,-0.65627 4.68696,-1.48315"
       style="fill:#2b1100;fill-opacity:1;stroke:none;stroke-width:0.520771" />
    <rect
       transform="rotate(-38.229488)"
       y="134.22182"
       x="-110.03333"
       height="79.45369"
       width="79.277527"
       id="rect879"
       style="opacity:0.55;fill:none;fill-opacity:1;stroke:#2b1100;stroke-width:0.715;stroke-miterlimit:4;stroke-dasharray:none;stroke-opacity:1" />
    <rect
       style="opacity:0.55;fill:none;fill-opacity:1;stroke:#2b1100;stroke-width:0.715396"
       id="rect879-3"
       width="79.978287"
       height="80.155998"
       x="119.33903"
       y="86.701523" />
    <path
       sodipodi:nodetypes="sssscsssssssssssscsscssssssssssscsssssscscsscssccsscssssssscscsscsssscscc"
       id="path932"
       d="m 145.26326,158.96216 c -2.5451,-0.27883 -7.69867,-1.5132 -7.43179,-1.78008 0.0672,-0.0672 1.59303,0.14397 3.39069,0.46931 17.82958,3.22673 35.13865,-11.47255 35.13865,-29.84056 v -2.86351 l 2.0281,-0.90388 c 1.11545,-0.49715 2.15847,-0.83117 2.31781,-0.74229 0.5058,0.28214 0.31251,6.4779 -0.30337,9.72449 -1.16778,6.15606 -3.8185,11.28407 -8.25813,15.97601 -7.10709,7.51102 -16.7218,11.0735 -26.88196,9.96051 z m -9.07816,-2.32277 c -0.31872,-0.20595 -0.40562,-0.37447 -0.19316,-0.37447 0.21247,0 0.64706,0.16852 0.96576,0.37447 0.3187,0.20598 0.40562,0.37448 0.19315,0.37448 -0.21247,0 -0.64706,-0.1685 -0.96575,-0.37448 z m 8.88501,-11.87358 c -3.87874,-8.23927 -11.30984,-18.57831 -17.29607,-24.06435 l -2.59864,-2.3815 2.26779,1.00271 c 6.72941,2.97543 15.25262,9.52758 19.00734,14.61172 l 1.63335,2.21168 1.64723,-2.79112 c 3.92789,-6.65554 8.58935,-11.66373 14.4375,-15.51141 5.1073,-3.36022 14.03373,-8.01609 17.97217,-9.37396 2.12293,-0.73193 3.24402,-1.27176 2.64519,-1.27377 -1.32805,-0.005 -5.93513,1.64798 -9.29434,3.33353 -1.43417,0.71962 -2.60757,1.20562 -2.60757,1.08002 0,-0.12557 1.02254,-1.47975 2.27231,-3.00922 4.01206,-4.90994 6.62101,-6.81605 9.32932,-6.81605 0.65791,0 3.04145,0.69536 5.29673,1.54523 2.25529,0.84987 4.2319,1.54521 4.39247,1.54521 0.16057,0 0.7496,0.174 1.30892,0.38667 l 1.01697,0.38663 -0.8504,1.1943 c -1.67299,2.34947 -4.87235,5.29639 -6.82363,6.28517 -2.84566,1.442 -5.43436,1.62821 -9.14757,0.65804 -4.69532,-1.22682 -5.15943,-1.14545 -8.414,1.4754 -3.40834,2.74464 -9.1954,8.67595 -11.45554,11.74105 -2.70477,3.66808 -5.79303,8.9696 -9.21976,15.8272 -1.77835,3.55883 -3.26975,6.466 -3.31422,6.46035 -0.0446,-0.006 -1.03698,-2.04124 -2.20555,-4.52353 z m -0.59326,-20.31569 c -1.77151,-0.68506 -2.71883,-1.48233 -3.66328,-3.08306 -1.12818,-1.91211 -0.96221,-5.31732 0.34893,-7.15864 2.55444,-3.58737 8.31374,-3.58463 10.97529,0.006 0.81346,1.09717 1.29966,4.27208 0.89882,5.8692 -0.36543,1.45592 -2.15301,3.36244 -3.89432,4.15342 -1.77949,0.8083 -2.98528,0.86356 -4.66544,0.21383 z m 24.40036,-17.15701 c -2.28109,-4.8522 -2.32037,-6.5203 -0.23027,-9.777447 l 1.29036,-2.010839 1.49779,1.690989 c 2.11714,2.390231 3.7668,4.987387 3.7668,5.930307 0,0.83741 -2.21247,5.65714 -3.17224,6.91054 -0.48332,0.63121 -0.50689,0.36067 -0.19171,-2.20209 0.23342,-1.89814 0.22293,-3.43598 -0.03,-4.38953 -0.35906,-1.35381 -0.3946,-1.22779 -0.45784,1.62265 -0.0377,1.69975 -0.18605,3.79663 -0.32965,4.65978 l -0.26109,1.56935 z m -46.34633,1.25131 c 4.24062,-5.94904 11.25418,-10.723081 18.48301,-12.581165 6.72271,-1.727975 15.62664,-0.803741 21.81694,2.264653 l 2.88799,1.431508 -0.11446,1.801664 c -0.0702,1.10705 0.12542,2.26538 0.50753,3.00437 0.61463,1.18856 0.59339,1.18149 -1.80782,-0.60302 -3.00209,-2.23107 -7.75154,-4.486325 -11.26478,-5.349059 -3.72986,-0.915918 -10.37833,-0.858873 -14.15013,0.121374 -5.78405,1.503275 -10.36896,4.167785 -14.6765,8.529275 -1.37936,1.39663 -2.13617,2.01781 -1.68182,1.38041 z"
       style="fill:#2b1100;fill-opacity:1;stroke-width:0.386304" />
    <path
       sodipodi:nodetypes="sssssssscsscsssscssssssssssssssscssssssssssssssssssscsccccssccsssscsccsssscsssccssssssssssssscsssssssssscscsssssssssssssssscssccssssscsssscscs"
       id="path948"
       d="m -75.108353,177.76668 c -9.686217,-2.10753 -19.678224,-9.57143 -24.297132,-18.14962 -7.259635,-13.48256 -5.022565,-30.93989 5.373377,-41.93208 11.391733,-12.04507 27.79319,-15.09091 42.831476,-7.95401 22.435881,10.64764 27.599847,40.18634 10.115369,57.86143 -9.136779,9.23638 -21.43338,12.91357 -34.02309,10.17428 z m 4.864604,-6.33375 c 0.537256,-0.99568 0.897104,-4.94549 0.928575,-10.19236 l 0.0514,-8.56665 -3.08715,-2.74523 c -1.697938,-1.5099 -4.299034,-3.06731 -5.780212,-3.46097 -1.681602,-0.44692 -2.110044,-0.74379 -1.140747,-0.79043 0.853775,-0.041 3.405543,0.90018 5.670588,2.09167 2.265048,1.19147 4.411458,1.98512 4.769795,1.76365 0.358328,-0.22145 0.651515,-2.09551 0.651515,-4.16453 0,-4.94176 -1.903755,-8.52364 -5.133896,-9.65941 -1.798997,-0.63257 -2.037408,-0.87327 -0.894588,-0.90317 1.163116,-0.0305 1.467661,-0.3864 1.201475,-1.40428 -0.196098,-0.74994 -0.0031,-1.58196 0.428907,-1.84896 0.742865,-0.45912 0.898438,-0.0964 1.073079,2.502 0.07761,1.15472 2.861163,5.04563 3.609641,5.04563 0.240858,0 0.470323,-1.05671 0.509929,-2.34821 0.06191,-2.01876 0.138399,-2.11225 0.545098,-0.66633 0.472034,1.67817 0.476706,1.67697 2.11719,-0.54189 0.904263,-1.22308 2.020341,-2.22378 2.480184,-2.22378 0.459839,0 -0.108881,0.9863 -1.263798,2.19179 -1.822603,1.90239 -2.137437,2.85643 -2.384293,7.22525 -0.15642,2.76842 -0.106749,5.03349 0.110377,5.03349 0.217127,0 1.960791,-0.95952 3.874793,-2.13227 1.914007,-1.17274 4.455419,-2.31267 5.647589,-2.53318 1.596081,-0.2952 1.383746,-0.10678 -0.805364,0.71484 -1.635113,0.61364 -4.362657,2.30528 -6.061209,3.75914 l -3.088265,2.64346 0.413584,7.98623 c 0.388334,7.4987 1.287549,11.91817 2.827134,13.89472 0.503962,0.64697 1.560708,0.58725 4.41096,-0.24932 5.896631,-1.73071 10.410194,-4.52533 14.576071,-9.02499 7.040816,-7.60492 10.060552,-17.15478 8.386506,-26.52215 -3.533551,-19.77256 -22.302088,-31.79658 -40.741745,-26.10115 -5.471565,1.69 -12.553445,6.19033 -15.709381,9.98289 -14.570683,17.50984 -6.682015,44.52709 15.027712,51.46713 5.376428,1.7187 5.737437,1.70684 6.778563,-0.22254 z m -5.409245,-16.04091 c -0.221277,-0.57665 0.207461,-1.79591 0.952803,-2.70948 1.191857,-1.46083 1.411857,-1.51542 1.825728,-0.453 0.500916,1.28584 -0.719166,4.21099 -1.756387,4.21099 -0.340895,0 -0.800863,-0.47183 -1.022144,-1.04851 z m -5.117944,-2.47795 c -0.609395,-0.98601 1.76621,-3.69882 3.239067,-3.69882 1.623913,0 1.778077,0.70471 0.500925,2.28978 -1.108629,1.37593 -3.259612,2.18634 -3.739992,1.40904 z m -3.355638,-4.72116 c 1.129078,-1.36046 3.918291,-1.55409 3.487488,-0.24223 -0.163112,0.49674 -1.228373,1.0121 -2.367256,1.14526 -1.818453,0.21245 -1.954915,0.10264 -1.120232,-0.90317 z m 26.047451,-0.0789 c -0.502676,-0.60567 -0.689455,-1.32573 -0.415078,-1.60012 0.602655,-0.60266 2.760276,0.66189 3.15625,1.84985 0.411614,1.23482 -1.666189,1.04554 -2.741172,-0.24988 z m -14.436031,-3.08938 c 0,-1.34015 1.291025,-3.03463 2.312086,-3.03463 0.891566,0 0.68361,2.4955 -0.289014,3.46813 -1.239245,1.23924 -2.023072,1.07127 -2.023072,-0.4335 z m 17.822317,0.81886 c -1.720471,-1.72047 0.663422,-2.25036 2.812217,-0.62508 1.350387,1.02136 1.333139,1.06165 -0.464006,1.08376 -1.026594,0.0136 -2.08329,-0.19389 -2.348211,-0.45868 z m -22.497452,-2.34139 c -0.584928,-1.84291 0.906258,-4.84745 1.908452,-3.84526 0.930029,0.93003 0.480516,4.67096 -0.604002,5.0267 -0.463018,0.15184 -1.050021,-0.37978 -1.30445,-1.18144 z m -8.880508,0.17423 c -0.501291,-0.20207 -1.244291,-0.98912 -1.65111,-1.74927 -0.635408,-1.18728 -0.488741,-1.38209 1.040459,-1.38209 1.76845,0 4.050924,1.6575 4.050924,2.94174 0,0.70648 -1.897681,0.8111 -3.440273,0.18951 z m 22.735599,-0.55735 c -1.529248,-1.52925 -1.580266,-2.57401 -0.1257,-2.57401 1.199821,0 2.090081,1.60954 1.638914,2.96303 -0.18881,0.56646 -0.685396,0.43879 -1.513209,-0.38902 z m -18.228816,-1.90592 c -0.541424,-1.70587 -0.08206,-2.48309 1.053003,-1.78158 0.947657,0.58568 1.02714,3.28107 0.09675,3.28107 -0.370614,0 -0.888004,-0.67475 -1.149763,-1.49949 z m 31.604785,0.65194 c 0.173297,-0.52733 1.219581,-1.06505 2.325062,-1.19499 1.416637,-0.16658 1.916947,0.0466 1.694873,0.72256 -0.173298,0.52728 -1.219583,1.06504 -2.325062,1.19494 -1.416633,0.16658 -1.916948,-0.0468 -1.694873,-0.72251 z m -9.068765,-0.35665 c -0.899438,-0.89945 -0.497128,-3.85347 0.524799,-3.85347 1.220318,0 1.992613,1.76536 1.422379,3.25136 -0.444808,1.15915 -1.166871,1.38242 -1.947178,0.60211 z m 4.575996,-0.64959 c 0,-1.13731 1.605953,-3.18975 2.205786,-2.81901 0.81813,0.50565 -0.454208,3.22777 -1.508677,3.22777 -0.38341,0 -0.697109,-0.18406 -0.697109,-0.40876 z m -19.372735,-2.52651 c 0.173844,-0.52158 0.742851,-1.09058 1.264422,-1.26443 0.541893,-0.1805 0.812841,0.0903 0.63221,0.63222 -0.173844,0.52155 -0.742851,1.09055 -1.264421,1.26442 -0.541894,0.18051 -0.812842,-0.0903 -0.632211,-0.63221 z m 14.796739,-3.32664 c -0.264916,-0.2649 -0.481688,-0.81767 -0.481688,-1.2283 0,-0.45274 0.336532,-0.41008 0.854987,0.1084 0.470251,0.47025 0.687007,1.02297 0.481687,1.22831 -0.20533,0.20534 -0.590065,0.15646 -0.854986,-0.1084 z m -19.488572,-0.70289 c -0.254129,-0.25423 -0.297899,-0.72762 -0.09727,-1.05224 0.450501,-0.72891 2.486059,-0.0164 2.486059,0.86906 0,0.74138 -1.700198,0.87175 -2.38878,0.18323 z m 12.504148,-3.15055 c 0,-0.39738 0.325135,-0.7225 0.722525,-0.7225 0.39739,0 0.722529,0.32512 0.722529,0.7225 0,0.39741 -0.325139,0.72253 -0.722529,0.72253 -0.39739,0 -0.722525,-0.32512 -0.722525,-0.72253 z m 3.251369,0 c -0.589228,-0.95336 0.27471,-2.30634 1.133717,-1.77545 0.877586,0.5424 0.871886,2.49798 -0.0074,2.49798 -0.373937,0 -0.880832,-0.32512 -1.126434,-0.72253 z m 3.973893,0.0886 c 0,-0.92393 2.124503,-2.53997 2.649267,-2.01522 0.524761,0.52478 -1.091275,2.64926 -2.015206,2.64926 -0.348735,0 -0.634061,-0.2853 -0.634061,-0.63404 z m -10.837894,-1.21489 c 0,-0.61955 0.325138,-0.92551 0.722527,-0.67989 0.397391,0.24549 0.722527,0.75249 0.722527,1.12642 0,0.37394 -0.325136,0.67989 -0.722527,0.67989 -0.397389,0 -0.722527,-0.5069 -0.722527,-1.12642 z m 2.167579,-0.95588 c 0,-0.39737 0.325138,-0.92347 0.722528,-1.16908 0.397387,-0.2455 0.722525,-0.12151 0.722525,0.276 0,0.39739 -0.325138,0.92345 -0.722525,1.16907 -0.39739,0.24549 -0.722528,0.12151 -0.722528,-0.27599 z"
       style="fill:#2b1100;fill-opacity:1;stroke-width:0.722524" />
    <rect
       style="opacity:0.55;fill:none;fill-opacity:1;stroke:#2b1100;stroke-width:0.715496"
       id="rect879-31"
       width="79.989449"
       height="80.167191"
       x="-107.04699"
       y="101.65986" />
    <path
       sodipodi:nodetypes="cccccccccccscccccccccccccccscsscccccccc"
       id="path979"
       d="m -43.03086,16.938973 c 7.115762,-0.01963 12.444712,-6.9654155 12.897902,-13.5822645 0.145234,-2.122463 -0.460187,-4.02344196 -0.929374,-6.051502 -6.573139,0.519488 -11.943385,6.044913 -12.736942,12.50644 -0.306067,2.4926835 0.216508,4.7203085 0.768414,7.1273265 m -25.819747,51.639487 0.134469,-2.286124 V 60.37531 38.455425 c -2.934303,-0.545036 -5.523666,-1.206133 -7.934183,-3.095005 -1.70801,-1.338326 -3.098364,-3.035435 -4.067561,-4.973665 -3.428501,-6.856889 -0.892932,-15.411696 5.815772,-19.247406 2.442113,-1.3962865 5.02167,-1.8789285 7.799714,-1.8654805 1.79003,0.0086 3.635339,0.555395 5.244632,1.3151945 1.621533,0.76545 3.135484,1.818546 4.360306,3.134412 1.565469,1.681779 2.72668,3.584103 3.439418,5.770577 0.586187,-1.410269 -0.347634,-4.123359 -0.807006,-5.513591 -1.420091,-4.2985865 -4.146354,-7.6941525 -7.396153,-10.7630705 -1.058339,-0.999305 -2.611425,-2.72868996 -4.034336,-3.15350596 -2.369356,-0.707488 -6.040467,0.194993 -8.337618,0.877064 -11.7749,3.49642396 -19.018287,16.20189246 -16.240245,28.10102946 1.226301,5.252168 4.366227,9.918949 7.038731,14.523607 4.878048,8.404998 10.081539,16.621325 14.98406,25.012875 m 4.437762,-68.31474046 v 0.134478 c 2.567184,1.90299496 4.913295,4.17378796 6.840895,6.72388996 1.528204,2.021606 2.935786,4.3755105 3.5451,6.8583735 0.919288,3.746552 1.236933,7.456393 0.558485,11.296138 -1.21393,6.870203 -5.586608,13.446034 -9.063264,19.364811 -1.61817,2.755042 -3.9874,5.61794 -5.109485,8.606575 -0.532808,1.419153 -0.133664,3.602128 -0.133664,5.11016 v 11.565096 h 0.134467 c 1.881886,-3.576579 4.032728,-7.025803 6.111889,-10.489271 3.426222,-5.707504 7.009392,-11.320075 10.351424,-17.078685 2.106194,-3.628884 4.459291,-7.279151 5.759825,-11.296139 2.304012,-7.116701 1.070576,-14.995489 -3.224238,-21.1130215 -1.558068,-2.219424 -3.481501,-4.094717 -5.685586,-5.666898 -3.033289,-2.163613 -6.459919,-3.33235996 -10.085848,-4.01550696"
       style="fill:#2b1100;fill-opacity:1;stroke:none;stroke-width:0.134478" />
    <rect
       y="-6.2995286"
       x="-100.65331"
       height="79.383995"
       width="79.207985"
       id="rect879-31-0"
       style="opacity:0.55;fill:none;fill-opacity:1;stroke:#2b1100;stroke-width:0.708506" />
  </g>
</svg>
