<?xml version="1.0" encoding="UTF-8" standalone="no"?>
<svg
   xmlns:dc="http://purl.org/dc/elements/1.1/"
   xmlns:cc="http://creativecommons.org/ns#"
   xmlns:rdf="http://www.w3.org/1999/02/22-rdf-syntax-ns#"
   xmlns:svg="http://www.w3.org/2000/svg"
   xmlns="http://www.w3.org/2000/svg"
   xmlns:sodipodi="http://sodipodi.sourceforge.net/DTD/sodipodi-0.dtd"
   xmlns:inkscape="http://www.inkscape.org/namespaces/inkscape"
   sodipodi:docname="rse.svg"
   inkscape:version="1.0 (4035a4fb49, 2020-05-01)"
   id="svg8"
   version="1.1"
   viewBox="0 0 80 80"
   height="80mm"
   width="80mm">
  <defs
     id="defs2" />
  <sodipodi:namedview
     inkscape:window-maximized="1"
     inkscape:window-y="-8"
     inkscape:window-x="-8"
     inkscape:window-height="705"
     inkscape:window-width="1366"
     showgrid="false"
     inkscape:document-rotation="0"
     inkscape:current-layer="layer1"
     inkscape:document-units="mm"
     inkscape:cy="345.23955"
     inkscape:cx="26.907459"
     inkscape:zoom="0.67114695"
     inkscape:pageshadow="2"
     inkscape:pageopacity="0.0"
     borderopacity="1.0"
     bordercolor="#666666"
     pagecolor="#ffffff"
     id="base" />
  <metadata
     id="metadata5">
    <rdf:RDF>
      <cc:Work
         rdf:about="">
        <dc:format>image/svg+xml</dc:format>
        <dc:type
           rdf:resource="http://purl.org/dc/dcmitype/StillImage" />
        <dc:title></dc:title>
      </cc:Work>
    </rdf:RDF>
  </metadata>
  <g
     id="layer1"
     inkscape:groupmode="layer"
     inkscape:label="Capa 1">
    <path
       id="path847"
       d="m 176.28916,-17.870972 v 38.517687 h 0.17915 c 0.14307,-17.2822596 15.78673,-32.433738 32.06821,-35.389154 7.09585,-1.288054 13.182,0.09052 20.06502,1.529423 v 0.358299 c -4.03575,2.188683 -3.58304,6.4739624 -3.58304,10.3908194 -5.74809,-1.317757 -11.19825,-2.32319 -17.01943,-0.541884 -4.16386,1.274145 -7.79545,3.25227398 -11.10743,6.09577 -12.512,10.7421336 -12.00446,31.2711606 0.35831,41.8676366 10.40657,8.919798 25.61192,8.793324 36.18869,0.331611 3.77814,-3.022646 6.43729,-7.127384 8.2659,-11.56444 1.74924,-4.244817 2.12294,-9.27523 1.5357,-13.794702 -0.25512,-1.962968 -1.04949,-3.803747 -1.38145,-5.732853 2.23062,0 4.91755,0.383726 6.98693,-0.632234 1.41888,-0.696718 2.48341,-2.03033 3.58304,-3.129957 7.07203,18.967528 -2.29619,40.610163 -20.60248,49.058262 -3.6221,1.671488 -7.80494,3.081592 -11.82403,3.254106 v 0.179154 h 36.90531 V -2.2847476 h -0.17915 c -1.61362,3.11043998 -5.50768,5.940142 -8.09302,8.32412 -0.81263,0.749211 -1.72505,2.089631 -2.83525,2.368028 -3.38221,0.847919 -7.65607,-1.041411 -10.92827,0.164997 -1.22864,0.453079 -2.31698,2.0297966 -3.22474,2.9375606 -2.27774,2.277741 -4.5716,4.535767 -6.87478,6.786984 -2.07602,2.029267 -4.14486,4.064256 -6.20332,6.111776 -1.23346,1.227008 -2.7842,2.123305 -4.29177,0.69726 -1.82573,-1.726849 -0.76121,-3.345122 0.70873,-4.817574 l 5.73286,-5.732864 6.80778,-6.8077726 c 0.95775,-0.957756 2.42948,-2.002566 3.04057,-3.224737 0.41707,-0.834128 0.18417,-2.136035 0.18417,-3.045587 0,-2.526579 -0.55681,-5.793256 0.0569,-8.240989 0.31136,-1.2418658 1.93662,-2.351853 2.80946,-3.224735 2.47552,-2.4754524 5.02307,-5.9469884 8.06184,-7.7035414 l -5.91201,-0.17915 h -13.2572 -46.22122 m 67.00284,0 v 0.17915 c 2.04932,1.066212 1.7883,3.018909 1.79153,5.016261 0.003,2.203762 0.17915,4.4134774 0.17915,6.6286224 2.21682,0 4.42129,0.179006 6.62862,0.179148 1.92535,1.3e-4 3.59665,-0.311809 4.83711,1.43322 h 0.17915 V -17.870972 H 243.292 m -7.16607,33.143121 c 1.51992,4.672646 2.21378,9.311961 0.93947,14.153001 -2.79209,10.606329 -13.68381,18.357169 -24.76669,16.39886 -3.46175,-0.611623 -6.80061,-1.866051 -9.6742,-3.910351 -2.30193,-1.637636 -4.21742,-3.676022 -5.75777,-6.039036 -5.59831,-8.588906 -4.26714,-20.757618 3.07317,-27.9407156 4.51803,-4.421292 11.10456,-6.693127 17.37506,-6.261184 1.62132,0.111609 3.28707,0.518467 4.8371,0.982828 0.54337,0.162848 1.5004,0.384102 1.11934,1.154268 -0.43516,0.879635 -1.50739,1.638709 -2.19425,2.325573 -1.57027,1.570275 -3.38418,4.1921566 -5.37456,5.1903966 -1.27234,0.638135 -3.09145,0.472961 -4.4788,0.996256 -3.61583,1.363889 -6.40594,4.480595 -7.54284,8.145515 -2.27774,7.343257 3.50476,14.990714 10.94673,15.734732 3.37343,0.337345 6.87083,-1.142457 9.31321,-3.403714 1.7874,-1.654817 3.13821,-3.852656 3.6728,-6.239866 0.22107,-0.986759 0.008,-2.330754 0.4554,-3.224726 0.51399,-1.027972 1.69962,-1.883785 2.50311,-2.687271 1.77683,-1.776839 3.49848,-3.926846 5.55372,-5.374566 m -59.83677,11.824028 v 35.830395 h 34.75548 V 62.747418 C 198.1303,62.191509 185.39012,52.13159 180.10678,40.711724 c -1.41659,-3.062066 -2.38037,-6.20959 -3.12106,-9.495055 -0.29837,-1.323572 -0.15873,-2.873778 -0.69656,-4.120492 z"
       style="fill:#2b1100;stroke:none;stroke-width:0.179152" />
    <path
       sodipodi:nodetypes="cccccccccccccccccccccsc"
       id="path877"
       d="m 88.678937,33.112293 c 9.121008,-6.008213 17.284643,-10.782495 28.121733,-13.019326 -3.64281,3.84273 -5.98108,10.021912 -3.07777,15.101993 4.12607,7.220421 13.94888,6.206461 17.13863,-1.041121 -2.47888,1.157151 -4.92183,3.13037 -7.81159,2.261712 -5.86286,-1.761446 -6.7138,-9.278603 -2.03466,-12.779253 7.50432,-5.614024 15.93877,5.539162 11.81059,12.600113 -8.6844,14.85347 -30.61644,-2.049566 -42.584615,-2.082572 v 0.520766 c 10.899565,3.546453 21.959945,10.561274 33.850215,9.283292 11.82259,-1.270172 16.04918,-12.962455 9.8947,-22.30261 8.13655,2.411335 10.93518,10.54309 10.93623,18.227035 5.95711,-1.752898 13.52707,-7.927972 16.14394,-13.540071 -9.02551,-0.0748 -16.17729,-7.091674 -24.47633,-9.892649 -14.9873,-5.058494 -40.713385,1.228123 -47.911073,16.662691 M 133.46538,21.308088 c 0.40257,0 0.0833,0.259301 -0.17341,0.173606 l 0.17341,-0.173606 m -4.16616,11.804205 V 32.59152 c -5.96235,2.155836 -10.63471,-4.040412 -5.20775,-8.332375 -5.98471,-0.797919 -5.82274,9.989684 0.52079,10.336298 1.75186,0.09566 3.21054,-0.656266 4.68696,-1.48315"
       style="fill:#2b1100;fill-opacity:1;stroke:none;stroke-width:0.520771" />
    <rect
       y="-7.357029"
       x="85.636993"
       height="79.45369"
       width="79.277527"
       id="rect879"
       style="opacity:0.55;fill:none;fill-opacity:1;stroke:#2b1100;stroke-width:1.64132;stroke-miterlimit:4;stroke-dasharray:none;stroke-opacity:1" />
    <rect
       style="opacity:0.55;fill:none;fill-opacity:1;stroke:#2b1100;stroke-width:0.715396"
       id="rect879-3"
       width="79.978287"
       height="80.155998"
       x="-0.1113409"
       y="-0.028120039" />
    <path
       sodipodi:nodetypes="sssscsssssssssssscsscssssssssssscsssssscscsscssccsscssssssscscsscsssscscc"
       id="path932"
       d="m 25.812887,72.232517 c -2.545096,-0.278827 -7.69867,-1.513195 -7.43179,-1.780077 0.06718,-0.06724 1.59303,0.143968 3.390696,0.469307 17.829576,3.226727 35.138646,-11.472551 35.138646,-29.840557 v -2.86351 l 2.028098,-0.903883 c 1.115452,-0.497148 2.158474,-0.831173 2.317815,-0.74229 0.505796,0.28214 0.312504,6.477897 -0.303375,9.724492 -1.167775,6.156058 -3.818502,11.284071 -8.258129,15.976005 -7.107089,7.511023 -16.7218,11.073507 -26.881961,9.960513 z m -9.078162,-2.322768 c -0.318712,-0.205953 -0.40562,-0.374475 -0.193158,-0.374475 0.21247,0 0.647067,0.168522 0.965766,0.374475 0.318697,0.205978 0.405618,0.374475 0.19315,0.374475 -0.21247,0 -0.647061,-0.168497 -0.965758,-0.374475 z M 25.619738,58.03617 C 21.741,49.796894 14.309901,39.457854 8.3236733,33.971822 l -2.5986418,-2.381507 2.2677926,1.002714 c 6.7294069,2.975434 15.2526179,9.52758 19.0073339,14.611718 l 1.633347,2.211685 1.647232,-2.79112 c 3.927894,-6.655548 8.589349,-11.663729 14.437502,-15.511411 5.107305,-3.360225 14.03373,-8.016092 17.97217,-9.37396 2.122934,-0.731933 3.244017,-1.27176 2.645186,-1.273771 -1.328044,-0.0051 -5.935129,1.647979 -9.294339,3.33353 -1.434165,0.719619 -2.607569,1.205623 -2.607569,1.080022 0,-0.125577 1.02254,-1.479752 2.272314,-3.009224 4.012054,-4.909936 6.621007,-6.816048 9.329322,-6.816048 0.65791,0 3.041443,0.695357 5.296728,1.545227 2.255292,0.849869 4.231895,1.545214 4.392472,1.545214 0.160565,0 0.749595,0.173998 1.308914,0.386663 l 1.01697,0.386638 -0.8504,1.1943 c -1.672986,2.349463 -4.872347,5.296382 -6.823625,6.285162 -2.845665,1.442002 -5.434359,1.628214 -9.147575,0.658041 -4.695314,-1.226815 -5.159428,-1.145445 -8.413997,1.475408 -3.408336,2.744634 -9.195402,8.675941 -11.455537,11.741049 -2.704769,3.66808 -5.793031,8.969594 -9.219765,15.827199 -1.778349,3.55883 -3.269745,6.466001 -3.31422,6.460345 -0.0446,-0.0064 -1.036982,-2.04124 -2.20555,-4.523526 z M 25.026483,37.720481 c -1.771517,-0.685066 -2.718835,-1.482336 -3.663286,-3.083066 -1.128182,-1.912111 -0.962211,-5.31732 0.348933,-7.158632 2.554435,-3.587371 8.313738,-3.584632 10.975286,0.0064 0.813463,1.097162 1.299663,4.27208 0.89882,5.869194 -0.365422,1.455921 -2.153006,3.362441 -3.894315,4.15342 -1.779489,0.808299 -2.985278,0.86356 -4.665438,0.213836 z M 49.426836,20.563472 c -2.281085,-4.852203 -2.320362,-6.520306 -0.23027,-9.777448 l 1.29036,-2.0108392 1.497791,1.6909892 c 2.117143,2.390231 3.7668,4.987382 3.7668,5.930301 0,0.837413 -2.212468,5.65714 -3.172241,6.910548 -0.483319,0.631206 -0.506891,0.36067 -0.191707,-2.202095 0.23342,-1.89814 0.222935,-3.435979 -0.02996,-4.389532 -0.359055,-1.353806 -0.394603,-1.227784 -0.45784,1.622648 -0.03769,1.699752 -0.18605,3.796635 -0.329654,4.659789 l -0.261082,1.569348 z M 3.0805173,21.814778 C 7.3211305,15.865743 14.334688,11.0917 21.563521,9.2336152 28.286233,7.5056411 37.190162,8.4298751 43.380456,11.498269 l 2.887991,1.431508 -0.114459,1.801665 c -0.07019,1.107046 0.125424,2.26538 0.507529,3.00437 0.614637,1.188556 0.593389,1.181489 -1.807816,-0.603021 C 41.851609,14.901721 37.102164,12.646466 33.588916,11.783732 29.859055,10.867814 23.210592,10.924859 19.438794,11.905106 13.654738,13.408381 9.0698277,16.072892 4.7622884,20.43438 3.3829311,21.831004 2.6261218,22.452186 3.0804702,21.814791 Z"
       style="fill:#2b1100;fill-opacity:1;stroke-width:0.386304" />
    <path
       sodipodi:nodetypes="sssssssscsscsssscssssssssssssssscssssssssssssssssssscsccccssccsssscsccsssscsssccssssssssssssscsssssssssscscsssssssssssssssscssccssssscsssscscs"
       id="path948"
       d="m -84.562733,245.63168 c -14.417718,-3.13701 -29.290597,-14.24685 -36.165737,-27.01532 -10.80581,-20.06848 -7.47598,-46.05333 7.99815,-62.41496 16.95634,-17.92882 41.369542,-22.46248 63.753695,-11.83938 33.395309,15.8488 41.0817572,59.81648 15.056501,86.12548 -13.599891,13.74814 -31.903107,19.22156 -50.642609,15.14418 z m 7.240853,-9.42765 c 0.799694,-1.48205 1.335319,-7.36125 1.382164,-15.1711 l 0.0765,-12.75128 -4.595154,-4.0862 c -2.527342,-2.24745 -6.399014,-4.56564 -8.603715,-5.15159 -2.503027,-0.66522 -3.140754,-1.1071 -1.697976,-1.17654 1.270823,-0.061 5.069073,1.33991 8.440544,3.1134 3.371472,1.77349 6.566355,2.95483 7.099731,2.62517 0.533364,-0.32964 0.969767,-3.11912 0.969767,-6.19882 0,-7.35568 -2.833697,-12.68724 -7.64169,-14.37782 -2.677767,-0.94155 -3.032635,-1.29982 -1.331575,-1.34433 1.731273,-0.0454 2.184582,-0.57516 1.78837,-2.09025 -0.291888,-1.11627 -0.0046,-2.35471 0.638418,-2.75212 1.105737,-0.68341 1.337306,-0.14349 1.597254,3.72416 0.115515,1.71878 4.258777,7.51031 5.372871,7.51031 0.358511,0 0.700064,-1.57289 0.759018,-3.49526 0.09215,-3.00488 0.206002,-3.14405 0.811365,-0.99182 0.702612,2.49792 0.709566,2.49613 3.151389,-0.8066 1.345977,-1.82052 3.007234,-3.31005 3.6917,-3.31005 0.68446,0 -0.16206,1.4681 -1.881136,3.26245 -2.712902,2.83167 -3.181526,4.25173 -3.548966,10.75462 -0.232829,4.12073 -0.15889,7.49223 0.164297,7.49223 0.323188,0 2.918594,-1.42822 5.767542,-3.17383 2.848957,-1.7456 6.631793,-3.44236 8.406311,-3.77059 2.375731,-0.4394 2.059676,-0.15893 -1.198767,1.06403 -2.433828,0.9134 -6.493717,3.43135 -9.021974,5.5954 l -4.596814,3.93473 0.615611,11.88731 c 0.578027,11.16167 1.916487,17.73994 4.208126,20.682 0.750137,0.96301 2.32308,0.87412 6.565615,-0.37111 8.777003,-2.57612 15.495341,-6.73585 21.696157,-13.4335 10.480097,-11.31975 14.974907,-25.5345 12.483126,-39.47763 -5.25961,-29.43101 -33.196159,-47.3285 -60.643178,-38.85098 -8.144302,2.51552 -18.685521,9.21418 -23.383061,14.85931 -21.68814,26.06302 -9.94603,66.27759 22.368414,76.60769 8.002691,2.55824 8.540046,2.54059 10.089739,-0.33126 z m -8.05154,-23.87653 c -0.329366,-0.85835 0.3088,-2.67318 1.418227,-4.033 1.774051,-2.17444 2.101518,-2.25569 2.717556,-0.67429 0.745601,1.91393 -1.070463,6.26796 -2.614344,6.26796 -0.507414,0 -1.192067,-0.70231 -1.521439,-1.56067 z m -7.617944,-3.68839 c -0.907072,-1.46766 2.628964,-5.50562 4.821278,-5.50562 2.417158,0 2.646628,1.04896 0.745615,3.4083 -1.650169,2.04805 -4.851859,3.25431 -5.566893,2.09732 z m -4.994794,-7.02733 c 1.680607,-2.02502 5.83229,-2.31322 5.191048,-0.36055 -0.242788,0.73938 -1.828405,1.50648 -3.523606,1.70468 -2.706728,0.31623 -2.909847,0.15282 -1.667442,-1.34434 z m 38.77105,-0.11746 c -0.748222,-0.90153 -1.026238,-1.97331 -0.617834,-2.38174 0.897037,-0.89705 4.108609,0.98521 4.698007,2.75346 0.612679,1.83799 -2.480086,1.55627 -4.080173,-0.37194 z m -21.48771,-4.59848 c 0,-1.99478 1.921662,-4.51697 3.441488,-4.51697 1.327078,0 1.01754,3.7145 -0.43019,5.16224 -1.844589,1.84457 -3.011298,1.59456 -3.011298,-0.64527 z m 26.528122,1.21885 c -2.560884,-2.56088 0.987489,-3.34961 4.18592,-0.93042 2.010022,1.52029 1.984349,1.58025 -0.690661,1.61316 -1.528063,0.0203 -3.10093,-0.28859 -3.495259,-0.68274 z m -33.486956,-3.48509 c -0.870653,-2.74313 1.348944,-7.21533 2.840689,-5.7236 1.384326,1.38434 0.715237,6.95263 -0.899045,7.48215 -0.689191,0.226 -1.562932,-0.5653 -1.941644,-1.75855 z m -13.218438,0.25933 c -0.74616,-0.30078 -1.8521,-1.47228 -2.45764,-2.60375 -0.94579,-1.76723 -0.72748,-2.0572 1.5487,-2.0572 2.632299,0 6.029711,2.46714 6.029711,4.37871 0,1.05158 -2.824656,1.2073 -5.120771,0.28208 z m 33.841431,-0.8296 c -2.276251,-2.27626 -2.352189,-3.83135 -0.187101,-3.83135 1.785907,0 3.11104,2.39576 2.439487,4.4104 -0.281039,0.84316 -1.020196,0.65313 -2.252379,-0.57905 z m -27.133185,-2.83691 c -0.805896,-2.53917 -0.122151,-3.69604 1.567371,-2.65184 1.410568,0.87176 1.528876,4.88379 0.144014,4.88379 -0.551651,0 -1.321774,-1.00435 -1.711397,-2.23195 z m 47.043017,0.97038 c 0.257948,-0.78491 1.815319,-1.58529 3.460802,-1.7787 2.108632,-0.24795 2.853334,0.0695 2.522781,1.0755 -0.25795,0.78485 -1.815321,1.58528 -3.460803,1.77864 -2.108627,0.24796 -2.853334,-0.0696 -2.52278,-1.07544 z m -13.498654,-0.53086 c -1.338794,-1.33881 -0.739964,-5.7358 0.781151,-5.7358 1.816417,0 2.965959,2.62769 2.117179,4.83957 -0.662086,1.72536 -1.736861,2.05772 -2.89833,0.89623 z m 6.811268,-0.96691 c 0,-1.69286 2.390424,-4.74785 3.283262,-4.19602 1.21777,0.75264 -0.676077,4.80445 -2.245631,4.80445 -0.570698,0 -1.037631,-0.27395 -1.037631,-0.60843 z m -28.835884,-3.76065 c 0.258763,-0.77636 1.105717,-1.62329 1.882064,-1.88206 0.806596,-0.26868 1.209896,0.13449 0.94103,0.94103 -0.258762,0.77633 -1.105717,1.62326 -1.882063,1.88206 -0.806596,0.26868 -1.209897,-0.13449 -0.941031,-0.94103 z m 22.024616,-4.95163 c -0.394321,-0.39429 -0.716982,-1.21708 -0.716982,-1.82828 0,-0.6739 0.500921,-0.61041 1.272629,0.16136 0.699957,0.69996 1.022596,1.52266 0.71698,1.8283 -0.305629,0.30565 -0.878298,0.23291 -1.272627,-0.16138 z m -29.008305,-1.04623 c -0.378265,-0.37842 -0.443415,-1.08305 -0.144786,-1.56623 0.670562,-1.08496 3.700444,-0.0244 3.700444,1.29357 0,1.10353 -2.530707,1.29759 -3.555646,0.27274 z m 18.612146,-4.68951 c 0,-0.59149 0.483956,-1.07543 1.075462,-1.07543 0.591506,0 1.075468,0.48394 1.075468,1.07543 0,0.59152 -0.483962,1.07546 -1.075468,1.07546 -0.591506,0 -1.075462,-0.48394 -1.075462,-1.07546 z m 4.839589,0 c -0.877051,-1.41908 0.408901,-3.43295 1.687513,-2.64273 1.306266,0.80734 1.297783,3.71819 -0.01099,3.71819 -0.556597,0 -1.311099,-0.48394 -1.676671,-1.07546 z m 5.915051,0.13177 c 0,-1.37527 3.162276,-3.78071 3.943375,-2.99962 0.781096,0.78112 -1.624339,3.94336 -2.999589,3.94336 -0.519084,0 -0.943786,-0.42467 -0.943786,-0.94374 z m -16.131963,-1.80836 c 0,-0.92217 0.483961,-1.3776 1.075467,-1.01201 0.591506,0.36542 1.075464,1.12008 1.075464,1.67666 0,0.5566 -0.483958,1.01201 -1.075464,1.01201 -0.591506,0 -1.075467,-0.7545 -1.075467,-1.67666 z m 3.226393,-1.4228 c 0,-0.59149 0.483961,-1.37457 1.075467,-1.74016 0.591502,-0.36541 1.075463,-0.18086 1.075463,0.41083 0,0.5915 -0.483961,1.37453 -1.075463,1.74012 -0.591506,0.36542 -1.075467,0.18088 -1.075467,-0.41079 z"
       style="fill:#2b1100;fill-opacity:1;stroke-width:1.07546" />
    <rect
       style="opacity:0.55;fill:none;fill-opacity:1;stroke:#2b1100;stroke-width:1.065"
       id="rect879-31"
       width="119.06251"
       height="119.32707"
       x="-132.10268"
       y="132.34837" />
    <path
       sodipodi:nodetypes="cccccccccccscccccccccccccccscsscccccccc"
       id="path979"
       d="m -38.968322,22.713132 c 10.69615,-0.02951 18.706429,-10.470153 19.387648,-20.4163534 0.21831,-3.19040743 -0.691735,-6.0478885 -1.397,-9.0963927 -9.880499,0.7808747 -17.952853,9.0864888 -19.145699,18.7992141 -0.460069,3.746908 0.325447,7.095391 1.155051,10.713532 m -38.811285,77.622558 0.202128,-3.436414 V 88.005022 55.055864 c -4.410736,-0.819277 -8.30297,-1.813015 -11.92637,-4.652296 -2.567416,-2.011723 -4.657345,-4.562755 -6.114206,-7.47623 -5.153595,-10.307021 -1.342222,-23.166289 8.742052,-28.931987 3.670895,-2.098843 7.548389,-2.824331 11.724241,-2.804118 2.690707,0.01296 5.464506,0.834848 7.883537,1.976951 2.437428,1.150594 4.713143,2.733569 6.554249,4.711529 2.353156,2.527989 4.098645,5.387491 5.170007,8.674119 0.881134,-2.119865 -0.522551,-6.198081 -1.213062,-8.287825 -2.134628,-6.461475 -6.232646,-11.5655629 -11.117623,-16.1786464 -1.590855,-1.50211739 -3.925398,-4.1016653 -6.064264,-4.740233 -3.561528,-1.0634687 -9.079806,0.2931068 -12.532799,1.318371 -17.699593,5.2556941 -28.587583,24.3540804 -24.411733,42.2404214 1.84333,7.894863 6.56315,14.909796 10.58036,21.831346 7.3325,12.634081 15.154195,24.98456 22.523483,37.598424 m 6.670678,-102.6881777 v 0.2021417 c 3.858896,2.86051188 7.385484,6.2738843 10.28298,10.1071036 2.29714,3.0388034 4.412965,6.5771004 5.328864,10.3092494 1.381838,5.631677 1.859312,11.208173 0.839493,16.979934 -1.824735,10.327035 -8.397582,20.211581 -13.623562,29.108465 -2.432373,4.141278 -5.993712,8.44468 -7.680389,12.937085 -0.800897,2.133217 -0.200919,5.414586 -0.200919,7.681403 v 17.384226 h 0.202128 c 2.82878,-5.37618 6.061846,-10.560929 9.187163,-15.767086 5.15017,-8.579309 10.536259,-17.015916 15.559877,-25.672046 3.165952,-5.454804 6.703041,-10.941749 8.657955,-16.979936 3.463305,-10.697561 1.609251,-22.540663 -4.846555,-31.73631 -2.342029,-3.3361534 -5.233262,-6.1550245 -8.546361,-8.518268 -4.559529,-3.25226379 -9.710311,-5.0090808 -15.160674,-6.0359617"
       style="fill:#2b1100;fill-opacity:1;stroke:none;stroke-width:0.202142" />
    <rect
       y="-11.032948"
       x="-132.10268"
       height="119.32707"
       width="119.06251"
       id="rect879-31-0"
       style="opacity:0.55;fill:none;fill-opacity:1;stroke:#2b1100;stroke-width:1.065" />
  </g>
</svg>
