<?xml version="1.0" encoding="UTF-8" standalone="no"?>
<svg
   xmlns:dc="http://purl.org/dc/elements/1.1/"
   xmlns:cc="http://creativecommons.org/ns#"
   xmlns:rdf="http://www.w3.org/1999/02/22-rdf-syntax-ns#"
   xmlns:svg="http://www.w3.org/2000/svg"
   xmlns="http://www.w3.org/2000/svg"
   xmlns:sodipodi="http://sodipodi.sourceforge.net/DTD/sodipodi-0.dtd"
   xmlns:inkscape="http://www.inkscape.org/namespaces/inkscape"
   sodipodi:docname="valores.svg"
   inkscape:version="1.0 (4035a4fb49, 2020-05-01)"
   width="26.458334mm"
   height="26.458334mm"
   viewBox="0 0 26.458333 26.458333"
   version="1.1"
   id="svg8">
  <defs
     id="defs2" />
  <sodipodi:namedview
     units="mm"
     inkscape:window-maximized="1"
     inkscape:window-y="-8"
     inkscape:window-x="-8"
     inkscape:window-height="705"
     inkscape:window-width="1366"
     showgrid="false"
     inkscape:document-rotation="0"
     inkscape:current-layer="layer1"
     inkscape:document-units="mm"
     inkscape:cy="-13.355382"
     inkscape:cx="151.34524"
     inkscape:zoom="1.2339194"
     inkscape:pageshadow="2"
     inkscape:pageopacity="0.0"
     borderopacity="1.0"
     bordercolor="#666666"
     pagecolor="#ffffff"
     id="base" />
  <metadata
     id="metadata5">
    <rdf:RDF>
      <cc:Work
         rdf:about="">
        <dc:format>image/svg+xml</dc:format>
        <dc:type
           rdf:resource="http://purl.org/dc/dcmitype/StillImage" />
        <dc:title></dc:title>
      </cc:Work>
    </rdf:RDF>
  </metadata>
  <g
     id="layer1"
     inkscape:groupmode="layer"
     inkscape:label="Capa 1">
    <path
       sodipodi:nodetypes="sscssscsssssssssssscssscsssccccccccsccsssssssssssssscssscccc"
       id="path954"
       d="m 28.364166,-58.765697 c -0.151141,-0.134341 -0.274816,-1.641156 -0.274816,-3.348543 v -3.104338 l -2.316393,-3.262079 c -1.274021,-1.794161 -2.206002,-3.360204 -2.071073,-3.480094 0.393218,-0.349411 1.206252,0.425437 2.532468,2.413538 0.680168,1.019606 1.336205,1.85712 1.45786,1.861115 0.121655,0.0046 0.09681,-1.279067 -0.05526,-2.851263 -0.245766,-2.5412 -0.510574,-3.22443 -2.385363,-6.154417 -1.159895,-1.812731 -2.1089,-3.493357 -2.1089,-3.73474 0,-0.966904 0.740498,-0.327217 2.086904,1.80286 0.77934,1.232949 1.472157,1.99683 1.539592,1.697547 0.06743,-0.299284 -0.158623,-2.568407 -0.502353,-5.042466 -0.343731,-2.474074 -0.525213,-4.64174 -0.403295,-4.817015 0.510387,-0.733819 0.90869,0.21507 1.183292,2.818983 0.312637,2.964582 0.798399,3.1958 1.872624,0.891327 0.520393,-1.116347 1.231006,-1.46406 1.231006,-0.602348 0,0.266417 -0.563812,1.409383 -1.252919,2.539935 -1.242507,2.038428 -1.249358,2.080766 -0.824443,5.091976 0.235661,1.670029 0.432601,3.287989 0.437642,3.595462 0.01293,0.784333 1.363931,-0.835939 2.511841,-3.012303 0.849613,-1.610818 1.601211,-2.252141 1.601211,-1.366273 0,0.205491 -0.845931,1.870292 -1.879844,3.699573 l -1.879847,3.325948 0.290348,5.640894 c 0.271872,5.28203 0.13472,6.218657 -0.790282,5.396721 z M 10.776035,-84.345173 V -106.1396 H 28.08935 45.402665 v 21.794427 21.794439 h -6.252032 -6.252026 l 1.466906,-1.303469 c 3.266507,-2.902563 5.669782,-9.051148 5.67538,-14.520005 l 0.0029,-2.820093 -1.429534,0.530765 c -0.786248,0.291896 -1.528245,0.530733 -1.648888,0.530733 -0.12063,0 -0.219348,-0.995484 -0.219348,-2.212192 0,-2.258682 -0.768841,-9.215568 -1.045645,-9.461547 -0.08414,-0.0748 -0.883873,0.378425 -1.777162,1.007099 -0.893289,0.628661 -1.720627,1.143029 -1.838529,1.143029 -0.1179,0 -0.907864,-1.112614 -1.755477,-2.47247 -2.344656,-3.761656 -5.061241,-7.417442 -5.511845,-7.417442 -0.455497,0 -1.565339,3.143515 -3.089059,8.749475 -0.568742,2.092488 -1.096592,3.860043 -1.172992,3.927939 -0.07641,0.06786 -0.777621,-0.261002 -1.558261,-0.730874 -0.780684,-0.469871 -1.848196,-0.974338 -2.37229,-1.121034 -1.101031,-0.308168 -1.133293,-0.69961 0.578603,7.020819 0.545946,2.462151 0.992631,4.560208 0.992631,4.662375 0,0.102111 -0.464533,-0.0031 -1.0323,-0.232175 -0.567761,-0.22986 -1.145119,-0.3177 -1.283014,-0.195158 -0.137899,0.122462 0.06665,1.509176 0.454564,3.08142 0.958696,3.885724 3.372469,8.353359 5.551966,10.276063 l 1.764659,1.556742 H 17.214046 10.77611 Z"
       style="fill:#67923d;fill-opacity:1;stroke-width:0.388578" />
    <text
       transform="scale(1.0073866,0.99266757)"
       id="text962"
       y="-32.870358"
       x="10.836859"
       style="font-style:normal;font-weight:normal;font-size:27.6662px;line-height:1.25;font-family:sans-serif;fill:#67923d;fill-opacity:1;stroke:none;stroke-width:1.72913"
       xml:space="preserve"><tspan
         style="font-style:normal;font-variant:normal;font-weight:normal;font-stretch:normal;font-size:27.6662px;font-family:'AR BONNIE';-inkscape-font-specification:'AR BONNIE';fill:#67923d;fill-opacity:1;stroke-width:1.72913"
         y="-32.870358"
         x="10.836859"
         id="tspan960"
         sodipodi:role="line">Reserva Natural Colombia</tspan></text>
    <text
       xml:space="preserve"
       style="font-style:normal;font-weight:normal;font-size:53.8862px;line-height:1.25;font-family:sans-serif;fill:#000000;fill-opacity:1;stroke:none;stroke-width:1.34716"
       x="47.051266"
       y="-66.461739"
       id="text958-9"><tspan
         sodipodi:role="line"
         id="tspan956-0"
         x="47.051266"
         y="-66.461739"
         style="font-style:normal;font-variant:normal;font-weight:normal;font-stretch:normal;font-family:'Ink Free';-inkscape-font-specification:'Ink Free';fill:#000000;fill-opacity:1;stroke-width:1.34716">Quetzal</tspan></text>
    <text
       id="text958"
       y="-66.268883"
       x="49.053516"
       style="font-style:normal;font-weight:normal;font-size:53.8862px;line-height:1.25;font-family:sans-serif;fill:#67923d;fill-opacity:1;stroke:none;stroke-width:1.34716"
       xml:space="preserve"><tspan
         style="font-style:normal;font-variant:normal;font-weight:normal;font-stretch:normal;font-family:'Ink Free';-inkscape-font-specification:'Ink Free';fill:#67923d;fill-opacity:1;stroke-width:1.34716"
         y="-66.268883"
         x="49.053516"
         id="tspan956"
         sodipodi:role="line">Quetzal</tspan></text>
    <path
       id="path2692-2"
       d="m -71.467281,-18.40438 c 1.77749,-1.012611 3.22715,-2.143932 5.24933,-2.683092 7.4041,-1.974249 15.4725,0.298032 23.02934,-0.0328 4.33612,-0.189981 10.010816,-2.184561 11.683996,-6.59739 2.162217,1.52332 3.622538,4.11344 4.783148,6.434669 4.224541,8.449051 2.931509,18.8534013 -3.164149,26.0773313 -10.263625,12.1633897 -29.477715,11.2528797 -38.529435,-1.86267 -2.44179,-3.53821995 -4.05214,-7.872301 -4.23756,-12.192 -0.68411,1.67708 0.36271,4.91829 0.84666,6.604 1.92126,6.69307 6.62432,12.56301 12.86934,15.7060097 13.48012,6.784349 30.619524,0.52798 35.889683,-13.84333965 4.092112,-11.15922935 -0.128688,-24.31101835 -10.151018,-30.87015035 -4.199969,-2.748788 -8.930125,-3.976619 -13.885345,-4.194548 -2.95266,-0.129871 -5.83081,0.262289 -8.63599,1.198028 -2.91897,0.973672 -5.63745,2.601481 -7.95867,4.620942 -3.65286,3.17821 -6.06535,7.166179 -7.78933,11.63506 m -1.35467,8.4667203 v 0.508 h 0.16934 z"
       style="fill:#67923d;fill-opacity:1;stroke:none;stroke-width:0.169333"
       sodipodi:nodetypes="ccccssccccccsscccccc" />
    <text
       xml:space="preserve"
       style="font-style:normal;font-weight:normal;font-size:10.5833px;line-height:1.25;font-family:sans-serif;fill:#67923d;fill-opacity:1;stroke:#ffffff;stroke-width:0.264583"
       x="-67.469238"
       y="-4.1664228"
       id="text2594"><tspan
         sodipodi:role="line"
         id="tspan2592"
         x="-67.469238"
         y="-4.1664228"
         style="font-style:normal;font-variant:normal;font-weight:normal;font-stretch:normal;font-family:'AR DARLING';-inkscape-font-specification:'AR DARLING';fill:#67923d;fill-opacity:1;stroke:#ffffff;stroke-width:0.264583">MISIÓN</tspan></text>
    <path
       inkscape:export-ydpi="96"
       inkscape:export-xdpi="96"
       inkscape:export-filename="C:\Users\agu03\OneDrive\Documentos\ctc\Taller us y as\Oligatorio Taller UsyAs Bagnasco - Godoy\img\vision.png"
       sodipodi:nodetypes="ccccssccccccsscccccc"
       style="fill:#67923d;fill-opacity:1;stroke:none;stroke-width:0.169333"
       d="m -65.203167,33.35333 c 1.777499,-1.012608 3.22716,-2.143929 5.249338,-2.683089 7.4041,-1.97425 15.472492,0.298029 23.029332,-0.0328 4.33612,-0.189979 10.01082,-2.184559 11.684,-6.597388 2.16222,1.52332 3.62254,4.11344 4.78315,6.434669 4.22453,8.449051 2.93151,18.853399 -3.16415,26.077328 -10.26363,12.16339 -29.477721,11.25288 -38.529432,-1.862669 -2.441789,-3.53822 -4.052149,-7.872299 -4.237569,-12.192 -0.684109,1.67708 0.362709,4.918292 0.846669,6.604 1.921251,6.693069 6.62432,12.563009 12.869331,15.706009 13.480121,6.78435 30.619531,0.52798 35.889681,-13.843337 4.09211,-11.159231 -0.12868,-24.31102 -10.15101,-30.870152 -4.19997,-2.748788 -8.93013,-3.976618 -13.88534,-4.194548 -2.95266,-0.129871 -5.830819,0.26229 -8.636,1.198028 -2.918971,0.973672 -5.63744,2.601481 -7.958662,4.62094 -3.652858,3.178212 -6.065348,7.166182 -7.789338,11.63506 m -1.354662,8.466722 v 0.508 h 0.169331 z"
       id="path2692-2-8" />
    <text
       inkscape:export-ydpi="96"
       inkscape:export-xdpi="96"
       inkscape:export-filename="C:\Users\agu03\OneDrive\Documentos\ctc\Taller us y as\Oligatorio Taller UsyAs Bagnasco - Godoy\img\vision.png"
       id="text2594-3"
       y="48.197769"
       x="-61.282249"
       style="font-style:normal;font-weight:normal;font-size:10.5833px;line-height:1.25;font-family:sans-serif;fill:#67923d;fill-opacity:1;stroke:#ffffff;stroke-width:0.264583"
       xml:space="preserve"><tspan
         style="font-style:normal;font-variant:normal;font-weight:normal;font-stretch:normal;font-family:'AR DARLING';-inkscape-font-specification:'AR DARLING';fill:#67923d;fill-opacity:1;stroke:#ffffff;stroke-width:0.264583"
         y="48.197769"
         x="-61.282249"
         id="tspan2592-53"
         sodipodi:role="line">VISIÓN</tspan></text>
    <path
       inkscape:export-ydpi="96"
       inkscape:export-xdpi="96"
       inkscape:export-filename="C:\Users\agu03\OneDrive\Documentos\ctc\Taller us y as\Oligatorio Taller UsyAs Bagnasco - Godoy\img\valores.png"
       sodipodi:nodetypes="ccccssccccccsscccccc"
       style="fill:#67923d;fill-opacity:1;stroke:none;stroke-width:0.0800941"
       d="m 1.9671016,9.6869336 c 0.840745,-0.47896 1.526427,-1.01407 2.482909,-1.26909 3.502106,-0.933811 7.3184224,0.140968 10.8927744,-0.01551 2.050969,-0.08986 4.735072,-1.033286 5.526478,-3.120535 1.02272,0.720524 1.713445,1.945639 2.262408,3.04357 1.998189,3.9963624 1.386592,8.9175724 -1.496628,12.3344584 -4.854651,5.753228 -13.9428284,5.322561 -18.2242504,-0.881034 -1.154956,-1.673562 -1.916644,-3.723562 -2.004346,-5.766761 -0.323582,0.793252 0.17156,2.326329 0.400466,3.123662 0.908747,3.165792 3.133273,5.942247 6.087139,7.428871 6.3760404,3.208967 14.4828994,0.249732 16.9756604,-6.547836 1.935549,-5.278265 -0.06087,-11.4990024 -4.801386,-14.6014414 -1.986567,-1.300165 -4.223911,-1.880923 -6.567703,-1.984003 -1.396595,-0.06143 -2.757951,0.124062 -4.0847844,0.566662 -1.380659,0.460542 -2.666488,1.230489 -3.76442,2.185685 -1.727786,1.503278 -2.868882,3.38957 -3.684317,5.50333 m -0.640753,4.0047204 v 0.240281 h 0.0801 z"
       id="path2692-2-6" />
    <text
       inkscape:export-ydpi="96"
       inkscape:export-xdpi="96"
       inkscape:export-filename="C:\Users\agu03\OneDrive\Documentos\ctc\Taller us y as\Oligatorio Taller UsyAs Bagnasco - Godoy\img\valores.png"
       id="text2594-37"
       y="16.708014"
       x="1.3186687"
       style="font-style:normal;font-weight:normal;font-size:5.00585px;line-height:1.25;font-family:sans-serif;fill:#67923d;fill-opacity:1;stroke:#ffffff;stroke-width:0.125147"
       xml:space="preserve"><tspan
         style="font-style:normal;font-variant:normal;font-weight:normal;font-stretch:normal;font-family:'AR DARLING';-inkscape-font-specification:'AR DARLING';fill:#67923d;fill-opacity:1;stroke:#ffffff;stroke-width:0.125147"
         y="16.708014"
         x="1.3186687"
         id="tspan2592-4"
         sodipodi:role="line">VALORES</tspan></text>
    <path
       id="path2692-2-8-5"
       d="m -81.857636,-80.331029 c 1.7775,-1.01261 3.22716,-2.14393 5.249341,-2.68309 7.4041,-1.97425 15.47249,0.29803 23.029331,-0.0328 4.33612,-0.18998 10.01082,-2.18456 11.684,-6.59739 2.16222,1.52332 3.62254,4.11344 4.78315,6.43467 4.22453,8.44905 2.93151,18.853405 -3.16415,26.077327 -10.26363,12.16339 -29.47772,11.25288 -38.529431,-1.862662 -2.441789,-3.53822 -4.052149,-7.872309 -4.237569,-12.192 -0.684112,1.67708 0.362709,4.918282 0.846669,6.604 1.921251,6.693062 6.62432,12.563002 12.869331,15.706011 13.480119,6.78434 30.61953,0.527971 35.88968,-13.843349 4.09211,-11.159227 -0.12868,-24.311017 -10.15101,-30.870148 -4.19997,-2.74879 -8.93013,-3.97662 -13.885339,-4.19455 -2.95266,-0.12987 -5.830822,0.26229 -8.636,1.19803 -2.918971,0.97367 -5.63744,2.60148 -7.958662,4.620941 -3.652861,3.17821 -6.06535,7.16618 -7.789341,11.63506 m -1.354659,8.466717 v 0.508 h 0.169331 z"
       style="fill:#67923d;fill-opacity:1;stroke:none;stroke-width:0.169333"
       sodipodi:nodetypes="ccccssccccccsscccccc"
       inkscape:export-xdpi="96"
       inkscape:export-ydpi="96" />
    <text
       xml:space="preserve"
       style="font-style:normal;font-weight:normal;font-size:10.5833px;line-height:1.25;font-family:sans-serif;fill:#67923d;fill-opacity:1;stroke:#ffffff;stroke-width:0.264583"
       x="-67.882683"
       y="-65.486595"
       id="text2594-3-6"
       inkscape:export-xdpi="96"
       inkscape:export-ydpi="96"><tspan
         sodipodi:role="line"
         id="tspan2592-53-5"
         x="-67.882683"
         y="-65.486595"
         style="font-style:normal;font-variant:normal;font-weight:normal;font-stretch:normal;font-family:'AR DARLING';-inkscape-font-specification:'AR DARLING';fill:#67923d;fill-opacity:1;stroke:#ffffff;stroke-width:0.264583">RSE</tspan></text>
  </g>
</svg>
