<?xml version="1.0" encoding="UTF-8" standalone="no"?>
<svg
   xmlns:dc="http://purl.org/dc/elements/1.1/"
   xmlns:cc="http://creativecommons.org/ns#"
   xmlns:rdf="http://www.w3.org/1999/02/22-rdf-syntax-ns#"
   xmlns:svg="http://www.w3.org/2000/svg"
   xmlns="http://www.w3.org/2000/svg"
   xmlns:sodipodi="http://sodipodi.sourceforge.net/DTD/sodipodi-0.dtd"
   xmlns:inkscape="http://www.inkscape.org/namespaces/inkscape"
   sodipodi:docname="vision.svg"
   inkscape:version="1.0 (4035a4fb49, 2020-05-01)"
   id="svg8"
   version="1.1"
   viewBox="0 0 100 100"
   height="100mm"
   width="100mm">
  <defs
     id="defs2" />
  <sodipodi:namedview
     inkscape:window-maximized="1"
     inkscape:window-y="-8"
     inkscape:window-x="-8"
     inkscape:window-height="705"
     inkscape:window-width="1366"
     showgrid="false"
     inkscape:document-rotation="0"
     inkscape:current-layer="layer1"
     inkscape:document-units="mm"
     inkscape:cy="283.37282"
     inkscape:cx="130.1058"
     inkscape:zoom="0.67114695"
     inkscape:pageshadow="2"
     inkscape:pageopacity="0.0"
     borderopacity="1.0"
     bordercolor="#666666"
     pagecolor="#ffffff"
     id="base" />
  <metadata
     id="metadata5">
    <rdf:RDF>
      <cc:Work
         rdf:about="">
        <dc:format>image/svg+xml</dc:format>
        <dc:type
           rdf:resource="http://purl.org/dc/dcmitype/StillImage" />
        <dc:title></dc:title>
      </cc:Work>
    </rdf:RDF>
  </metadata>
  <g
     id="layer1"
     inkscape:groupmode="layer"
     inkscape:label="Capa 1">
    <path
       id="path847"
       d="m 176.28916,-17.870972 v 38.517687 h 0.17915 c 0.14307,-17.2822596 15.78673,-32.433738 32.06821,-35.389154 7.09585,-1.288054 13.182,0.09052 20.06502,1.529423 v 0.358299 c -4.03575,2.188683 -3.58304,6.4739624 -3.58304,10.3908194 -5.74809,-1.317757 -11.19825,-2.32319 -17.01943,-0.541884 -4.16386,1.274145 -7.79545,3.25227398 -11.10743,6.09577 -12.512,10.7421336 -12.00446,31.2711606 0.35831,41.8676366 10.40657,8.919798 25.61192,8.793324 36.18869,0.331611 3.77814,-3.022646 6.43729,-7.127384 8.2659,-11.56444 1.74924,-4.244817 2.12294,-9.27523 1.5357,-13.794702 -0.25512,-1.962968 -1.04949,-3.803747 -1.38145,-5.732853 2.23062,0 4.91755,0.383726 6.98693,-0.632234 1.41888,-0.696718 2.48341,-2.03033 3.58304,-3.129957 7.07203,18.967528 -2.29619,40.610163 -20.60248,49.058262 -3.6221,1.671488 -7.80494,3.081592 -11.82403,3.254106 v 0.179154 h 36.90531 V -2.2847476 h -0.17915 c -1.61362,3.11043998 -5.50768,5.940142 -8.09302,8.32412 -0.81263,0.749211 -1.72505,2.089631 -2.83525,2.368028 -3.38221,0.847919 -7.65607,-1.041411 -10.92827,0.164997 -1.22864,0.453079 -2.31698,2.0297966 -3.22474,2.9375606 -2.27774,2.277741 -4.5716,4.535767 -6.87478,6.786984 -2.07602,2.029267 -4.14486,4.064256 -6.20332,6.111776 -1.23346,1.227008 -2.7842,2.123305 -4.29177,0.69726 -1.82573,-1.726849 -0.76121,-3.345122 0.70873,-4.817574 l 5.73286,-5.732864 6.80778,-6.8077726 c 0.95775,-0.957756 2.42948,-2.002566 3.04057,-3.224737 0.41707,-0.834128 0.18417,-2.136035 0.18417,-3.045587 0,-2.526579 -0.55681,-5.793256 0.0569,-8.240989 0.31136,-1.2418658 1.93662,-2.351853 2.80946,-3.224735 2.47552,-2.4754524 5.02307,-5.9469884 8.06184,-7.7035414 l -5.91201,-0.17915 h -13.2572 -46.22122 m 67.00284,0 v 0.17915 c 2.04932,1.066212 1.7883,3.018909 1.79153,5.016261 0.003,2.203762 0.17915,4.4134774 0.17915,6.6286224 2.21682,0 4.42129,0.179006 6.62862,0.179148 1.92535,1.3e-4 3.59665,-0.311809 4.83711,1.43322 h 0.17915 V -17.870972 H 243.292 m -7.16607,33.143121 c 1.51992,4.672646 2.21378,9.311961 0.93947,14.153001 -2.79209,10.606329 -13.68381,18.357169 -24.76669,16.39886 -3.46175,-0.611623 -6.80061,-1.866051 -9.6742,-3.910351 -2.30193,-1.637636 -4.21742,-3.676022 -5.75777,-6.039036 -5.59831,-8.588906 -4.26714,-20.757618 3.07317,-27.9407156 4.51803,-4.421292 11.10456,-6.693127 17.37506,-6.261184 1.62132,0.111609 3.28707,0.518467 4.8371,0.982828 0.54337,0.162848 1.5004,0.384102 1.11934,1.154268 -0.43516,0.879635 -1.50739,1.638709 -2.19425,2.325573 -1.57027,1.570275 -3.38418,4.1921566 -5.37456,5.1903966 -1.27234,0.638135 -3.09145,0.472961 -4.4788,0.996256 -3.61583,1.363889 -6.40594,4.480595 -7.54284,8.145515 -2.27774,7.343257 3.50476,14.990714 10.94673,15.734732 3.37343,0.337345 6.87083,-1.142457 9.31321,-3.403714 1.7874,-1.654817 3.13821,-3.852656 3.6728,-6.239866 0.22107,-0.986759 0.008,-2.330754 0.4554,-3.224726 0.51399,-1.027972 1.69962,-1.883785 2.50311,-2.687271 1.77683,-1.776839 3.49848,-3.926846 5.55372,-5.374566 m -59.83677,11.824028 v 35.830395 h 34.75548 V 62.747418 C 198.1303,62.191509 185.39012,52.13159 180.10678,40.711724 c -1.41659,-3.062066 -2.38037,-6.20959 -3.12106,-9.495055 -0.29837,-1.323572 -0.15873,-2.873778 -0.69656,-4.120492 z"
       style="fill:#2b1100;stroke:none;stroke-width:0.179152" />
    <path
       sodipodi:nodetypes="cccccccccccccccccccccsc"
       id="path877"
       d="m 13.776067,51.640898 c 9.121007,-6.008213 17.284642,-10.782495 28.121732,-13.019326 -3.64281,3.84273 -5.98108,10.021912 -3.07777,15.101993 4.12607,7.220421 13.94888,6.206461 17.13863,-1.041121 -2.47888,1.157151 -4.92183,3.13037 -7.81159,2.261712 -5.86286,-1.761446 -6.7138,-9.278603 -2.03466,-12.779253 7.50432,-5.614024 15.93877,5.539162 11.81059,12.600113 -8.6844,14.85347 -30.61644,-2.049566 -42.584614,-2.082572 v 0.520766 c 10.899564,3.546453 21.959944,10.561274 33.850214,9.283292 11.82259,-1.270172 16.04918,-12.962455 9.8947,-22.30261 8.13655,2.411335 10.93518,10.54309 10.93623,18.227035 5.95711,-1.752898 13.52707,-7.927972 16.14394,-13.540071 -9.02551,-0.0748 -16.17729,-7.091674 -24.47633,-9.892649 -14.9873,-5.058494 -40.713385,1.228123 -47.911072,16.662691 M 58.562509,39.836693 c 0.40257,0 0.0833,0.259301 -0.17341,0.173606 l 0.17341,-0.173606 m -4.16616,11.804205 v -0.520773 c -5.96235,2.155836 -10.63471,-4.040412 -5.20775,-8.332375 -5.98471,-0.797919 -5.82274,9.989684 0.52079,10.336298 1.75186,0.09566 3.21054,-0.656266 4.68696,-1.48315"
       style="fill:#2b1100;fill-opacity:1;stroke:none;stroke-width:0.520771" />
    <rect
       transform="rotate(-38.229488)"
       y="31.42721"
       x="-31.565514"
       height="79.45369"
       width="79.277527"
       id="rect879"
       style="opacity:0.55;fill:none;fill-opacity:1;stroke:#2b1100;stroke-width:0.715;stroke-miterlimit:4;stroke-dasharray:none;stroke-opacity:1" />
    <rect
       style="opacity:0.55;fill:none;fill-opacity:1;stroke:#2b1100;stroke-width:0.715396"
       id="rect879-3"
       width="79.978287"
       height="80.155998"
       x="119.33903"
       y="86.701523" />
    <path
       sodipodi:nodetypes="sssscsssssssssssscsscssssssssssscsssssscscsscssccsscssssssscscsscsssscscc"
       id="path932"
       d="m 145.26326,158.96216 c -2.5451,-0.27883 -7.69867,-1.5132 -7.43179,-1.78008 0.0672,-0.0672 1.59303,0.14397 3.39069,0.46931 17.82958,3.22673 35.13865,-11.47255 35.13865,-29.84056 v -2.86351 l 2.0281,-0.90388 c 1.11545,-0.49715 2.15847,-0.83117 2.31781,-0.74229 0.5058,0.28214 0.31251,6.4779 -0.30337,9.72449 -1.16778,6.15606 -3.8185,11.28407 -8.25813,15.97601 -7.10709,7.51102 -16.7218,11.0735 -26.88196,9.96051 z m -9.07816,-2.32277 c -0.31872,-0.20595 -0.40562,-0.37447 -0.19316,-0.37447 0.21247,0 0.64706,0.16852 0.96576,0.37447 0.3187,0.20598 0.40562,0.37448 0.19315,0.37448 -0.21247,0 -0.64706,-0.1685 -0.96575,-0.37448 z m 8.88501,-11.87358 c -3.87874,-8.23927 -11.30984,-18.57831 -17.29607,-24.06435 l -2.59864,-2.3815 2.26779,1.00271 c 6.72941,2.97543 15.25262,9.52758 19.00734,14.61172 l 1.63335,2.21168 1.64723,-2.79112 c 3.92789,-6.65554 8.58935,-11.66373 14.4375,-15.51141 5.1073,-3.36022 14.03373,-8.01609 17.97217,-9.37396 2.12293,-0.73193 3.24402,-1.27176 2.64519,-1.27377 -1.32805,-0.005 -5.93513,1.64798 -9.29434,3.33353 -1.43417,0.71962 -2.60757,1.20562 -2.60757,1.08002 0,-0.12557 1.02254,-1.47975 2.27231,-3.00922 4.01206,-4.90994 6.62101,-6.81605 9.32932,-6.81605 0.65791,0 3.04145,0.69536 5.29673,1.54523 2.25529,0.84987 4.2319,1.54521 4.39247,1.54521 0.16057,0 0.7496,0.174 1.30892,0.38667 l 1.01697,0.38663 -0.8504,1.1943 c -1.67299,2.34947 -4.87235,5.29639 -6.82363,6.28517 -2.84566,1.442 -5.43436,1.62821 -9.14757,0.65804 -4.69532,-1.22682 -5.15943,-1.14545 -8.414,1.4754 -3.40834,2.74464 -9.1954,8.67595 -11.45554,11.74105 -2.70477,3.66808 -5.79303,8.9696 -9.21976,15.8272 -1.77835,3.55883 -3.26975,6.466 -3.31422,6.46035 -0.0446,-0.006 -1.03698,-2.04124 -2.20555,-4.52353 z m -0.59326,-20.31569 c -1.77151,-0.68506 -2.71883,-1.48233 -3.66328,-3.08306 -1.12818,-1.91211 -0.96221,-5.31732 0.34893,-7.15864 2.55444,-3.58737 8.31374,-3.58463 10.97529,0.006 0.81346,1.09717 1.29966,4.27208 0.89882,5.8692 -0.36543,1.45592 -2.15301,3.36244 -3.89432,4.15342 -1.77949,0.8083 -2.98528,0.86356 -4.66544,0.21383 z m 24.40036,-17.15701 c -2.28109,-4.8522 -2.32037,-6.5203 -0.23027,-9.777447 l 1.29036,-2.010839 1.49779,1.690989 c 2.11714,2.390231 3.7668,4.987387 3.7668,5.930307 0,0.83741 -2.21247,5.65714 -3.17224,6.91054 -0.48332,0.63121 -0.50689,0.36067 -0.19171,-2.20209 0.23342,-1.89814 0.22293,-3.43598 -0.03,-4.38953 -0.35906,-1.35381 -0.3946,-1.22779 -0.45784,1.62265 -0.0377,1.69975 -0.18605,3.79663 -0.32965,4.65978 l -0.26109,1.56935 z m -46.34633,1.25131 c 4.24062,-5.94904 11.25418,-10.723081 18.48301,-12.581165 6.72271,-1.727975 15.62664,-0.803741 21.81694,2.264653 l 2.88799,1.431508 -0.11446,1.801664 c -0.0702,1.10705 0.12542,2.26538 0.50753,3.00437 0.61463,1.18856 0.59339,1.18149 -1.80782,-0.60302 -3.00209,-2.23107 -7.75154,-4.486325 -11.26478,-5.349059 -3.72986,-0.915918 -10.37833,-0.858873 -14.15013,0.121374 -5.78405,1.503275 -10.36896,4.167785 -14.6765,8.529275 -1.37936,1.39663 -2.13617,2.01781 -1.68182,1.38041 z"
       style="fill:#2b1100;fill-opacity:1;stroke-width:0.386304" />
    <path
       sodipodi:nodetypes="sssssssscsscsssscssssssssssssssscssssssssssssssssssscsccccssccsssscsccsssscsssccssssssssssssscsssssssssscscsssssssssssssssscssccssssscsssscscs"
       id="path948"
       d="m -75.108353,177.76668 c -9.686217,-2.10753 -19.678224,-9.57143 -24.297132,-18.14962 -7.259635,-13.48256 -5.022565,-30.93989 5.373377,-41.93208 11.391733,-12.04507 27.79319,-15.09091 42.831476,-7.95401 22.435881,10.64764 27.599847,40.18634 10.115369,57.86143 -9.136779,9.23638 -21.43338,12.91357 -34.02309,10.17428 z m 4.864604,-6.33375 c 0.537256,-0.99568 0.897104,-4.94549 0.928575,-10.19236 l 0.0514,-8.56665 -3.08715,-2.74523 c -1.697938,-1.5099 -4.299034,-3.06731 -5.780212,-3.46097 -1.681602,-0.44692 -2.110044,-0.74379 -1.140747,-0.79043 0.853775,-0.041 3.405543,0.90018 5.670588,2.09167 2.265048,1.19147 4.411458,1.98512 4.769795,1.76365 0.358328,-0.22145 0.651515,-2.09551 0.651515,-4.16453 0,-4.94176 -1.903755,-8.52364 -5.133896,-9.65941 -1.798997,-0.63257 -2.037408,-0.87327 -0.894588,-0.90317 1.163116,-0.0305 1.467661,-0.3864 1.201475,-1.40428 -0.196098,-0.74994 -0.0031,-1.58196 0.428907,-1.84896 0.742865,-0.45912 0.898438,-0.0964 1.073079,2.502 0.07761,1.15472 2.861163,5.04563 3.609641,5.04563 0.240858,0 0.470323,-1.05671 0.509929,-2.34821 0.06191,-2.01876 0.138399,-2.11225 0.545098,-0.66633 0.472034,1.67817 0.476706,1.67697 2.11719,-0.54189 0.904263,-1.22308 2.020341,-2.22378 2.480184,-2.22378 0.459839,0 -0.108881,0.9863 -1.263798,2.19179 -1.822603,1.90239 -2.137437,2.85643 -2.384293,7.22525 -0.15642,2.76842 -0.106749,5.03349 0.110377,5.03349 0.217127,0 1.960791,-0.95952 3.874793,-2.13227 1.914007,-1.17274 4.455419,-2.31267 5.647589,-2.53318 1.596081,-0.2952 1.383746,-0.10678 -0.805364,0.71484 -1.635113,0.61364 -4.362657,2.30528 -6.061209,3.75914 l -3.088265,2.64346 0.413584,7.98623 c 0.388334,7.4987 1.287549,11.91817 2.827134,13.89472 0.503962,0.64697 1.560708,0.58725 4.41096,-0.24932 5.896631,-1.73071 10.410194,-4.52533 14.576071,-9.02499 7.040816,-7.60492 10.060552,-17.15478 8.386506,-26.52215 -3.533551,-19.77256 -22.302088,-31.79658 -40.741745,-26.10115 -5.471565,1.69 -12.553445,6.19033 -15.709381,9.98289 -14.570683,17.50984 -6.682015,44.52709 15.027712,51.46713 5.376428,1.7187 5.737437,1.70684 6.778563,-0.22254 z m -5.409245,-16.04091 c -0.221277,-0.57665 0.207461,-1.79591 0.952803,-2.70948 1.191857,-1.46083 1.411857,-1.51542 1.825728,-0.453 0.500916,1.28584 -0.719166,4.21099 -1.756387,4.21099 -0.340895,0 -0.800863,-0.47183 -1.022144,-1.04851 z m -5.117944,-2.47795 c -0.609395,-0.98601 1.76621,-3.69882 3.239067,-3.69882 1.623913,0 1.778077,0.70471 0.500925,2.28978 -1.108629,1.37593 -3.259612,2.18634 -3.739992,1.40904 z m -3.355638,-4.72116 c 1.129078,-1.36046 3.918291,-1.55409 3.487488,-0.24223 -0.163112,0.49674 -1.228373,1.0121 -2.367256,1.14526 -1.818453,0.21245 -1.954915,0.10264 -1.120232,-0.90317 z m 26.047451,-0.0789 c -0.502676,-0.60567 -0.689455,-1.32573 -0.415078,-1.60012 0.602655,-0.60266 2.760276,0.66189 3.15625,1.84985 0.411614,1.23482 -1.666189,1.04554 -2.741172,-0.24988 z m -14.436031,-3.08938 c 0,-1.34015 1.291025,-3.03463 2.312086,-3.03463 0.891566,0 0.68361,2.4955 -0.289014,3.46813 -1.239245,1.23924 -2.023072,1.07127 -2.023072,-0.4335 z m 17.822317,0.81886 c -1.720471,-1.72047 0.663422,-2.25036 2.812217,-0.62508 1.350387,1.02136 1.333139,1.06165 -0.464006,1.08376 -1.026594,0.0136 -2.08329,-0.19389 -2.348211,-0.45868 z m -22.497452,-2.34139 c -0.584928,-1.84291 0.906258,-4.84745 1.908452,-3.84526 0.930029,0.93003 0.480516,4.67096 -0.604002,5.0267 -0.463018,0.15184 -1.050021,-0.37978 -1.30445,-1.18144 z m -8.880508,0.17423 c -0.501291,-0.20207 -1.244291,-0.98912 -1.65111,-1.74927 -0.635408,-1.18728 -0.488741,-1.38209 1.040459,-1.38209 1.76845,0 4.050924,1.6575 4.050924,2.94174 0,0.70648 -1.897681,0.8111 -3.440273,0.18951 z m 22.735599,-0.55735 c -1.529248,-1.52925 -1.580266,-2.57401 -0.1257,-2.57401 1.199821,0 2.090081,1.60954 1.638914,2.96303 -0.18881,0.56646 -0.685396,0.43879 -1.513209,-0.38902 z m -18.228816,-1.90592 c -0.541424,-1.70587 -0.08206,-2.48309 1.053003,-1.78158 0.947657,0.58568 1.02714,3.28107 0.09675,3.28107 -0.370614,0 -0.888004,-0.67475 -1.149763,-1.49949 z m 31.604785,0.65194 c 0.173297,-0.52733 1.219581,-1.06505 2.325062,-1.19499 1.416637,-0.16658 1.916947,0.0466 1.694873,0.72256 -0.173298,0.52728 -1.219583,1.06504 -2.325062,1.19494 -1.416633,0.16658 -1.916948,-0.0468 -1.694873,-0.72251 z m -9.068765,-0.35665 c -0.899438,-0.89945 -0.497128,-3.85347 0.524799,-3.85347 1.220318,0 1.992613,1.76536 1.422379,3.25136 -0.444808,1.15915 -1.166871,1.38242 -1.947178,0.60211 z m 4.575996,-0.64959 c 0,-1.13731 1.605953,-3.18975 2.205786,-2.81901 0.81813,0.50565 -0.454208,3.22777 -1.508677,3.22777 -0.38341,0 -0.697109,-0.18406 -0.697109,-0.40876 z m -19.372735,-2.52651 c 0.173844,-0.52158 0.742851,-1.09058 1.264422,-1.26443 0.541893,-0.1805 0.812841,0.0903 0.63221,0.63222 -0.173844,0.52155 -0.742851,1.09055 -1.264421,1.26442 -0.541894,0.18051 -0.812842,-0.0903 -0.632211,-0.63221 z m 14.796739,-3.32664 c -0.264916,-0.2649 -0.481688,-0.81767 -0.481688,-1.2283 0,-0.45274 0.336532,-0.41008 0.854987,0.1084 0.470251,0.47025 0.687007,1.02297 0.481687,1.22831 -0.20533,0.20534 -0.590065,0.15646 -0.854986,-0.1084 z m -19.488572,-0.70289 c -0.254129,-0.25423 -0.297899,-0.72762 -0.09727,-1.05224 0.450501,-0.72891 2.486059,-0.0164 2.486059,0.86906 0,0.74138 -1.700198,0.87175 -2.38878,0.18323 z m 12.504148,-3.15055 c 0,-0.39738 0.325135,-0.7225 0.722525,-0.7225 0.39739,0 0.722529,0.32512 0.722529,0.7225 0,0.39741 -0.325139,0.72253 -0.722529,0.72253 -0.39739,0 -0.722525,-0.32512 -0.722525,-0.72253 z m 3.251369,0 c -0.589228,-0.95336 0.27471,-2.30634 1.133717,-1.77545 0.877586,0.5424 0.871886,2.49798 -0.0074,2.49798 -0.373937,0 -0.880832,-0.32512 -1.126434,-0.72253 z m 3.973893,0.0886 c 0,-0.92393 2.124503,-2.53997 2.649267,-2.01522 0.524761,0.52478 -1.091275,2.64926 -2.015206,2.64926 -0.348735,0 -0.634061,-0.2853 -0.634061,-0.63404 z m -10.837894,-1.21489 c 0,-0.61955 0.325138,-0.92551 0.722527,-0.67989 0.397391,0.24549 0.722527,0.75249 0.722527,1.12642 0,0.37394 -0.325136,0.67989 -0.722527,0.67989 -0.397389,0 -0.722527,-0.5069 -0.722527,-1.12642 z m 2.167579,-0.95588 c 0,-0.39737 0.325138,-0.92347 0.722528,-1.16908 0.397387,-0.2455 0.722525,-0.12151 0.722525,0.276 0,0.39739 -0.325138,0.92345 -0.722525,1.16907 -0.39739,0.24549 -0.722528,0.12151 -0.722528,-0.27599 z"
       style="fill:#2b1100;fill-opacity:1;stroke-width:0.722524" />
    <rect
       style="opacity:0.55;fill:none;fill-opacity:1;stroke:#2b1100;stroke-width:0.715496"
       id="rect879-31"
       width="79.989449"
       height="80.167191"
       x="-107.04699"
       y="101.65986" />
    <path
       sodipodi:nodetypes="cccccccccccscccccccccccccccscsscccccccc"
       id="path979"
       d="m -38.694378,16.150521 c 7.115762,-0.01963 12.444712,-6.9654148 12.897902,-13.5822639 0.145234,-2.12246248 -0.460187,-4.0234414 -0.929374,-6.0515016 -6.573139,0.5194879 -11.943385,6.0449131 -12.736942,12.5064397 -0.306067,2.4926828 0.216508,4.7203078 0.768414,7.1273258 m -25.819747,51.639487 0.134469,-2.286124 V 59.586858 37.666973 c -2.934303,-0.545036 -5.523666,-1.206133 -7.934183,-3.095005 -1.70801,-1.338326 -3.098364,-3.035435 -4.067561,-4.973665 -3.428501,-6.856889 -0.892932,-15.411696 5.815772,-19.247406 2.442113,-1.3962858 5.02167,-1.8789278 7.799714,-1.8654798 1.79003,0.0086 3.635339,0.555395 5.244632,1.315194 1.621533,0.7654498 3.135484,1.8185458 4.360306,3.1344118 1.565469,1.681779 2.72668,3.584103 3.439418,5.770577 0.586187,-1.410269 -0.347634,-4.123359 -0.807006,-5.513591 -1.420091,-4.2985858 -4.146354,-7.6941518 -7.396153,-10.7630696 -1.058339,-0.999305 -2.611425,-2.72869008 -4.034336,-3.15350628 -2.369356,-0.70748772 -6.040467,0.1949934 -8.337618,0.8770642 -11.7749,3.49642388 -19.018287,16.20189168 -16.240245,28.10102868 1.226301,5.252168 4.366227,9.918949 7.038731,14.523607 4.878048,8.404998 10.081539,16.621325 14.98406,25.012875 m 4.437762,-68.31473998 v 0.1344782 c 2.567184,1.90299468 4.913295,4.17378798 6.840895,6.72388998 1.528204,2.021606 2.935786,4.3755098 3.5451,6.8583728 0.919288,3.746552 1.236933,7.456393 0.558485,11.296138 -1.21393,6.870203 -5.586608,13.446034 -9.063264,19.364811 -1.61817,2.755042 -3.9874,5.61794 -5.109485,8.606575 -0.532808,1.419153 -0.133664,3.602128 -0.133664,5.11016 v 11.565096 h 0.134467 c 1.881886,-3.576579 4.032728,-7.025803 6.111889,-10.489271 3.426222,-5.707504 7.009392,-11.320075 10.351424,-17.078685 2.106194,-3.628884 4.459291,-7.279151 5.759825,-11.296139 2.304012,-7.116701 1.070576,-14.995489 -3.224238,-21.1130208 -1.558068,-2.219424 -3.481501,-4.094717 -5.685586,-5.666898 -3.033289,-2.1636134 -6.459919,-3.33236038 -10.085848,-4.01550718"
       style="fill:#2b1100;fill-opacity:1;stroke:none;stroke-width:0.134478" />
    <rect
       y="-6.2995286"
       x="-100.65331"
       height="79.383995"
       width="79.207985"
       id="rect879-31-0"
       style="opacity:0.55;fill:none;fill-opacity:1;stroke:#2b1100;stroke-width:0.708506" />
  </g>
</svg>
